<svg width="24" height="24" viewBox="0 0 24 24" fill="none" xmlns="http://www.w3.org/2000/svg">
<path d="M18.6941 8.78379C20.2289 8.78379 21.473 7.53965 21.473 6.00493C21.473 4.47021 20.2289 3.22607 18.6941 3.22607C17.1594 3.22607 15.9153 4.47021 15.9153 6.00493C15.9153 7.53965 17.1594 8.78379 18.6941 8.78379Z" stroke="#ADADAD" stroke-width="2" stroke-linecap="round" stroke-linejoin="round"/>
<path d="M14.5254 14.344V12.9542C14.5254 10.6514 16.3922 8.78467 18.695 8.78467C20.9978 8.78467 22.8645 10.6514 22.8645 12.9542V14.344" stroke="#ADADAD" stroke-width="2" stroke-linecap="round" stroke-linejoin="round"/>
<path d="M11.3149 14.3462H22.865" stroke="#ADADAD" stroke-width="2" stroke-linecap="round" stroke-linejoin="round"/>
<path d="M6.17803 9.62071C7.79918 9.62071 9.11338 8.3065 9.11338 6.68535C9.11338 5.06421 7.79918 3.75 6.17803 3.75C4.55688 3.75 3.24268 5.06421 3.24268 6.68535C3.24268 8.3065 4.55688 9.62071 6.17803 9.62071Z" stroke="#ADADAD" stroke-width="2" stroke-linecap="round" stroke-linejoin="round"/>
<path d="M11.315 14.7575C11.315 13.3951 10.7738 12.0885 9.81043 11.1252C8.84709 10.1618 7.54051 9.62061 6.17813 9.62061C4.81574 9.62061 3.50916 10.1618 2.54582 11.1252C1.58246 12.0885 1.04126 13.3951 1.04126 14.7575V16.959H3.24278L3.97661 22.8298H8.37963L9.11347 16.959H11.315V14.7575Z" stroke="#ADADAD" stroke-width="2" stroke-linecap="round" stroke-linejoin="round"/>
</svg>
