<svg width="24" height="24" viewBox="0 0 24 24" fill="none" xmlns="http://www.w3.org/2000/svg">
<g clip-path="url(#clip0_638_717)">
<path d="M16.8102 7.26696C16.7335 7.04993 16.6151 6.85256 16.4647 6.6845C16.1447 6.32702 15.6798 6.10205 15.1623 6.10205H13.8098C12.9483 6.10205 12.25 6.80038 12.25 7.66179C12.25 8.39479 12.7604 9.02889 13.4764 9.18552L15.5357 9.63598C16.3379 9.81146 16.9096 10.5223 16.9096 11.3435C16.9096 12.3085 16.1273 13.0915 15.1623 13.0915H13.9974C13.2366 13.0915 12.5893 12.6052 12.3494 11.9266"  stroke="#ADADAD" stroke-width="2" stroke-linecap="round" stroke-linejoin="round"/>
<path d="M14.5798 6.10186V4.35449"  stroke="#ADADAD" stroke-width="2" stroke-linecap="round" stroke-linejoin="round"/>
<path d="M14.5798 14.8387V13.0913"  stroke="#ADADAD" stroke-width="2" stroke-linecap="round" stroke-linejoin="round"/>
<path d="M14.5799 17.9811C19.2106 17.9811 22.9645 14.2272 22.9645 9.59649C22.9645 4.96581 19.2106 1.21191 14.5799 1.21191C9.94921 1.21191 6.19531 4.96581 6.19531 9.59649C6.19531 14.2272 9.94921 17.9811 14.5799 17.9811Z"  stroke="#ADADAD" stroke-width="2" stroke-linecap="round" stroke-linejoin="round"/>
<path d="M2.06216 10.5151C1.41852 11.7019 1.05298 13.0615 1.05298 14.5064C1.05298 19.1368 4.8066 22.8904 9.4369 22.8904C10.7491 22.8904 11.991 22.5889 13.0969 22.0514"  stroke="#ADADAD" stroke-width="2" stroke-linecap="round" stroke-linejoin="round"/>
</g>
<defs>
<clipPath id="clip0_638_717">
<rect width="24" height="24" fill="white"/>
</clipPath>
</defs>
</svg>
