<svg width="24" height="24" viewBox="0 0 24 24" fill="none" xmlns="http://www.w3.org/2000/svg">
<g clip-path="url(#clip0_638_731)">
<path d="M11.1429 21.4284C16.8235 21.4284 21.4286 16.8233 21.4286 11.1426C21.4286 5.462 16.8235 0.856934 11.1429 0.856934C5.46225 0.856934 0.857178 5.462 0.857178 11.1426C0.857178 16.8233 5.46225 21.4284 11.1429 21.4284Z" stroke="#ADADAD" stroke-width="2" stroke-linecap="round" stroke-linejoin="round"/>
<path d="M18.4114 18.4111L23.1428 23.1426" stroke="#ADADAD" stroke-width="2" stroke-linecap="round" stroke-linejoin="round"/>
<path d="M6.00024 10.026C6.00024 9.18861 6.67908 8.50977 7.51648 8.50977H14.7691C15.6065 8.50977 16.2854 9.18861 16.2854 10.026V14.3401C16.2854 15.1774 15.6065 15.8563 14.7691 15.8563H7.51648C6.67908 15.8563 6.00024 15.1774 6.00024 14.3401V10.026Z" stroke="#ADADAD" stroke-width="2" stroke-linecap="round" stroke-linejoin="round"/>
<path d="M8.93896 8.15996V7.28557C8.93896 6.33881 9.70647 5.57129 10.6533 5.57129H11.6326C12.5794 5.57129 13.3469 6.33881 13.3469 7.28557V8.15996" stroke="#ADADAD" stroke-width="2" stroke-linecap="round" stroke-linejoin="round"/>
</g>
<defs>
<clipPath id="clip0_638_731">
<rect width="24" height="24" fill="white"/>
</clipPath>
</defs>
</svg>
