<svg width="24" height="24" viewBox="0 0 24 24" fill="none" xmlns="http://www.w3.org/2000/svg">
<g clip-path="url(#clip0_638_737)">
<path d="M12 23.1429V14.1429C12 13.5745 12.2258 13.0295 12.6276 12.6276C13.0295 12.2258 13.5745 12 14.1429 12C14.7112 12 15.2562 12.2258 15.6581 12.6276C16.0599 13.0295 16.2857 13.5745 16.2857 14.1429V18.8571H19.7143C20.6235 18.8571 21.4956 19.2183 22.1386 19.8614C22.7817 20.5044 23.1429 21.3765 23.1429 22.2857V23.1429" stroke="#ADADAD" stroke-width="2" stroke-linecap="round" stroke-linejoin="round"/>
<path d="M10.727 5.30574C8.59013 2.95428 5.7227 1.39216 2.58821 0.871935C2.37494 0.841731 2.15767 0.85725 1.95086 0.917465C1.74403 0.977677 1.55239 1.08121 1.38866 1.22117C1.22199 1.36373 1.08817 1.54071 0.996433 1.73993C0.90469 1.93913 0.857192 2.15586 0.857206 2.37517V14.5985C0.854929 14.9739 0.991779 15.3368 1.24134 15.6172C1.49091 15.8976 1.8355 16.0757 2.2086 16.117C4.65679 16.449 6.95899 17.4178 8.89425 18.9072" stroke="#ADADAD" stroke-width="2" stroke-linecap="round" stroke-linejoin="round"/>
<path d="M10.7278 10.0426V5.30566" stroke="#ADADAD" stroke-width="2" stroke-linecap="round" stroke-linejoin="round"/>
<path d="M19.2452 16.117C19.6183 16.0757 19.9628 15.8976 20.2124 15.6172C20.462 15.3368 20.5988 14.9739 20.5966 14.5985V2.37517C20.5966 2.15586 20.5491 1.93913 20.4574 1.73993C20.3657 1.54071 20.2318 1.36373 20.0652 1.22117C19.9015 1.08121 19.7098 0.977677 19.5029 0.917465C19.2961 0.85725 19.0789 0.841731 18.8655 0.871935C15.7311 1.39216 12.8637 2.95428 10.7268 5.30574" stroke="#ADADAD" stroke-width="2" stroke-linecap="round" stroke-linejoin="round"/>
</g>
<defs>
<clipPath id="clip0_638_737">
<rect width="24" height="24" fill="white"/>
</clipPath>
</defs>
</svg>
