<svg width="56" height="56" viewBox="0 0 56 56" fill="none" xmlns="http://www.w3.org/2000/svg">
<circle cx="28" cy="28" r="28" fill="white"/>
<g clip-path="url(#clip0_584_697)">
<path d="M20.7578 24.5893H21.0315C22.0852 24.5893 22.9472 25.4514 22.9472 26.5051V36.0839C22.9472 37.1376 22.0852 37.9997 21.0315 37.9997H20.7578C19.7041 37.9997 18.842 37.1376 18.842 36.0839V26.5051C18.842 25.4514 19.7041 24.5893 20.7578 24.5893V24.5893ZM28.4209 18.842C29.4745 18.842 30.3366 19.7041 30.3366 20.7578V36.0839C30.3366 37.1376 29.4745 37.9997 28.4209 37.9997C27.3672 37.9997 26.5051 37.1376 26.5051 36.0839V20.7578C26.5051 19.7041 27.3672 18.842 28.4209 18.842ZM36.0839 29.7893C37.1376 29.7893 37.9997 30.6514 37.9997 31.705V36.0839C37.9997 37.1376 37.1376 37.9997 36.0839 37.9997C35.0302 37.9997 34.1682 37.1376 34.1682 36.0839V31.705C34.1682 30.6514 35.0302 29.7893 36.0839 29.7893V29.7893Z" fill="#E3B305"/>
</g>
<defs>
<clipPath id="clip0_584_697">
<rect width="32.8417" height="32.8417" fill="white" transform="translate(12 12)"/>
</clipPath>
</defs>
</svg>
