<?xml version="1.0" encoding="UTF-8"?>
<svg id="Camada_1" data-name="Camada 1" xmlns="http://www.w3.org/2000/svg" viewBox="0 0 1920 1080">
  <defs>
    <style>
      .cls-1 {
        fill: #0a9040;
      }

      .cls-1, .cls-2, .cls-3, .cls-4 {
        stroke-width: 0px;
      }

      .cls-2 {
        fill: #f6e724;
      }

      .cls-3 {
        fill: #fff;
      }

      .cls-4 {
        fill: #d7261e;
      }
    </style>
  </defs>
  <g>
    <path class="cls-1" d="M1460.97,210.93c.23-.07.47-.14.72-.17.82-.13,1.76-.47,2.27-1.25.12-.19.61-.36.95-.51,0,0,.02,0,.02-.01-.19.03-.32.06-.44.12-1.18.6-2.37,1.2-3.53,1.82"/>
    <path class="cls-1" d="M1435.8,221.63c1.59-.69,3.19-1.36,4.78-2.05.62-.27,1.31-.49,1.91-1.07-.07.03-.14.06-.2.09-1.44.65-2.86,1.35-4.33,1.91-1.18.45-2.29.95-3.29,1.62.03-.01.06-.02.09-.04.35-.14.69-.31,1.04-.46"/>
    <path class="cls-1" d="M1440.5,219.85c.19.25.44.08.66-.07-.14,0-.27.01-.4,0-.07,0-.16.02-.26.06"/>
    <path class="cls-1" d="M1424.3,227.89c-.3-.09-.56-.21-.77-.47-.51.21-1.02.42-1.53.63.39.18.83.16,1.29.07.03.07.05.14.06.21.39-.06.67-.24.94-.44"/>
    <path class="cls-1" d="M1435.28,222.47c.84-.38,1.61-.7,2.35-1.06.06-.03.12-.08.18-.13-.84.38-1.71.7-2.51,1.14,0,.02-.01.04-.02.06"/>
    <path class="cls-1" d="M1444.36,154.9c.57-.05,1.15-.1,1.78-.16-.41.61-.97.29-1.39.41-.46.13-.95.2-1.5.32,0-.02,0-.03,0-.04-1.2.56-2.4,1.11-3.6,1.67-.54.25-1.12.46-1.64.75-.93.52-1.89.98-2.87,1.4.05,0,.1,0,.15.01-.01.06-.03.12-.04.18-.14-.02-.27-.04-.41-.07-.51.22-1.03.43-1.54.64-.83.33-1.68.61-2.5.97-1.12.51-2.21,1.09-3.33,1.6-2.56,1.17-5.14,2.32-7.7,3.49-1.74.79-3.48,1.57-5.18,2.41-.75.37-1.68.63-2.21,1.3.19.02.34.04.48.05-.11.11.04.36-.4.33-.08,0-.33.16-.39.25-.19.3-.44.39-.78.35-.11-.01-.23-.05-.34-.04,0,0,0,.01,0,.02.56.1,1.24.23,2,.37-.04.05-.08.1-.12.14.72-.32,1.44-.65,2.16-.97.05-.02.13.01.26.03-.91.67-2.24.85-2.95,1.75-.06-.01-.12-.02-.19-.02-.12.14-.22.28-.32.43-.46.74-1.24.99-1.97,1.33-.24.11-.51.2-.72.35-.4.29-.76.62-1.1.91.02.34.04.65.07,1,.35.15.74.32,1.14.48-.07.17-.08.25-.13.31-.48.52-.49.66.04,1.04.46.33.96.61,1.41.89-.02.42-.02.85-.07,1.27-.04.39-.14.77-.22,1.19-.26-.03-.48-.05-.75-.08.4.8.83,1.45,1.8,1.66-.27.14-.46.25-.68.37.41.41.72.88,1.16,1.13.47.26.95.44,1.24,1-.63.04-1.09-.59-1.67-.21,0,0-.05-.02-.07-.04-.46-.55-1.18-.38-1.78-.58.11.17.3.26.37.41.33.67.82,1.11,1.64,1.19.44.04.89.31,1.29.25,1.07-.16,2.07.17,3.1.24.9.07,1.09.36,1.01,1.24-.54.37-.79-.43-1.33-.33.16.31.3.56.46.86-.5.17-.8.47-.91.93.33.2.83.37.54.81-.27.41.05.62.17.88-.25.33-.47.64-.7.95.19.11.33.2.62.38-.39.14-.66.23-.87.3-.12.27-.25.49-.33.73-.13.4-.51.64-.66,1-.23.54-.35,1.11-.49,1.61.19.19.32.31.44.43-.62.64-1.07,1.27-.63,2.15.38.02.76.04,1.28.07-.26.32-.46.57-.65.81-.12.15-.29.28-.32.44-.12.66-.59.95-1.2,1.16-.23.08-.41.31-.61.48-.2.17-.41.34-.61.51-.06.05-.11.12-.17.18.02.2.04.41.06.59.48.14.93.28,1.44.43-.16.23-.36.4-.33.48.23.52-.2.85-.4,1.2.61.23,1.17.43,1.68.62.16.58-.59.71-.45,1.22.12.45.14.92.21,1.48-.38.25-.82.55-1.31.87.69.38,1.59.42,1.95,1.21-.27.11-.54.22-.95.39.36.18.6.3.84.42-.06.07-.11.14-.17.21-.36,0-.73,0-1.1,0-.01.05-.02.09-.03.14.32.1.64.2.99.31-.1.45.17.69.65.77.39.07.49.33.46.63.2.02.43,0,.6.07.61.24,1.14.66,1.8.81.02,0,.01.09.03.22-.28.04-.56.07-.85.12.05.59.85.29,1.04.79-.29,0-.54,0-.87,0,.22.62.71,1.2.05,1.76.26.22.47.39.65.53-.03.23-.08.43-.07.63.02.21.12,1.5.1,1.64,0,.04.04.09.06.15.33-.1.66-.2.98-.3.15.21.27.38.51.74.12-.3.2-.51.29-.72.06.04.12.08.19.12.1.24.2.47.29.67-.13.27-.68-.09-.56.41.35.11.54.17.64.28.51-.19,1.04-.39,1.62-.61-.5.57-1.04.65-1.56.85,0,.14-.06.33-.14.63-.05.2-.12.49-.02.6.39.4.33.9.49,1.35.01.03.02.06.04.1.32-.15.63-.3.95-.46.01-.11.02-.22.04-.34.21,0,.38.01.52.07,1.96-.95,3.91-1.91,5.86-2.86-.73.07-1.39.02-1.76-.16.52-.19.99-.29,1.47-.42.4-.1.65-.64,1.21-.57.24.16.43.28.61.41.02-.01.04-.02.06-.03.32-.28.5-.39.68-.33,2.89-1.4,5.78-2.8,8.69-4.17,2.29-1.07,4.6-2.1,6.9-3.16,2.29-1.06,4.58-2.13,6.86-3.19.66-.31,1.33-.6,1.99-.9,2.85-1.28,5.71-2.53,8.55-3.83,4.47-2.04,8.93-4.1,13.38-6.18,2.84-1.32,5.64-2.71,8.49-4.01,4.56-2.09,9.15-4.13,13.72-6.21,2.72-1.24,5.43-2.5,8.15-3.75,2.56-1.18,5.14-2.34,7.7-3.52,1.51-.69,3-1.42,4.51-2.12,2.77-1.28,5.54-2.54,8.31-3.81,1.75-.8,3.5-1.6,5.25-2.39,3-1.36,6.01-2.72,9.01-4.08,2.3-1.04,4.61-2.08,6.91-3.12,3.48-1.58,6.96-3.14,10.43-4.74,1.82-.84,3.61-1.73,5.43-2.57.71-.33,1.45-.61,2.17-.91-.41-.03-.81-.07-1.22-.1-1.21-.09-2.43-.12-3.65-.2-.38-.02-.77.03-1.1-.27-.13-.12-.43-.07-.65-.09-1.94-.14-3.89-.28-5.83-.42-.18-.01-.36-.08-.53-.2,1.24-.25,2.48.02,3.72.05,1.28.03,2.55.17,3.83.27,1.28.09,2.55.17,3.82.27.88.07,1.77.14,2.65.23,1.24-.55,2.47-1.1,3.71-1.66-.08-.09-.11-.23-.04-.46.38-.07.75-.06,1.12-.03.17-.08.35-.16.52-.24-1.16-.25-2.33-.31-3.53-.19-.65.06-1.3-.03-1.72-.29-.56,0-1.01.12-1.35-.02-.46-.18-.81-.14-1.27.12.58.07,1.09.13,1.61.18.75.07,1.5.1,2.25.17.36.04.77.07.83.61-.27,0-.49.03-.7,0-.88-.1-1.77-.19-2.64-.34-2.44-.41-4.92-.29-7.38-.52-1.05-.1-2.11-.14-3.16-.2-2.06-.12-4.11-.26-6.17-.37-1.35-.07-2.71-.09-4.07-.17-1.52-.09-3.04-.25-4.56-.31-2.77-.12-5.55-.2-8.33-.29-1-.03-2.01,0-3.01-.04-1.5-.06-2.99-.17-4.48-.23-1.5-.06-3-.09-4.5-.14-2.48-.08-4.95-.26-7.43-.21-3.45.08-6.9-.13-10.34.18-.77.07-1.56-.08-2.34-.1-1.72-.06-3.44-.12-5.15-.15-1.45-.03-2.9-.01-4.34-.01-.22,0-.44.03-.67.02-1.25-.05-2.5-.13-3.75-.17-1.39-.04-2.79,0-4.18-.06-1.4-.06-2.8.22-4.2-.17-.62-.18-1.3-.14-1.96-.19-.02.24.04.62-.38.43-.95-.42-1.94.06-2.89-.2-.04-.01-.1.03-.15.06-.38.25-.8.1-1.2.11-.15,0-.37-.05-.45.02-.25.22-.46.2-.76.11-.27-.08-.6-.07-.89-.04-1.15.12-2.3.28-3.45.41-.66.07-1.32.14-1.99.15-1.3.02-2.6.01-3.9.02-.05,0-.12,0-.15.04-.26.36-.61.16-.91.12-.38-.05-.75-.13-1.13-.2.36.31.8.49,1.07.97-.74-.17-1.38-.2-2.02,0-.15.05-.33.07-.48.05-.97-.14-.97-.15-1.72.32-.02.02-.05.03-.07.04-.19-.02-.38-.04-.56-.06-.09.15-.16.29-.22.39-.27-.03-.56-.15-.69-.06-.45.32-.88.19-1.35.11-.1-.02-.21-.02-.32-.01-.48.25-.96.58-1.43.85-.67.39-1.24.91-2.08,1.05-.11.02-.31.08-.34.14-.09.13-.2.23-.32.32.16-.04.32-.08.49-.12q.05.36-.3.59s.04.06.06.09c.64-.26,1.26-.49,1.84-.79-.58.3-1.14.64-1.72.96.05.07.11.15.16.22-.32.45-.64.32-.97.2-.54.26-1.11.5-1.77.67.43-.3.87-.55,1.31-.76-.02,0-.04,0-.06,0,.07-.2.11-.31.16-.48-.15.01-.29.03-.45.04-.09.05-.18.1-.26.17.03-.05.06-.11.09-.15-.11,0-.23.02-.36.03.2-.17.27-.27.37-.3.08-.02.15-.04.23-.06.58-.7,1.49-1.15,2.46-1.57.8-.35,1.63-.66,2.41-1.03-.06,0-.12.02-.18.02-.19.02-.38.11-.57.12-.78.05-.79.04-1.08.63-.07-.02-.19-.01-.22-.06-.06-.09-.13-.16-.2-.2-.11.11-.22.22-.35.33,0-.19-.04-.35-.03-.44-.15,0-.32.02-.51.02-.83.04-1.59.38-2.42.4-.04.02-.08.04-.12.06-.22.1-.43.2-.64.3M1410.56,177.6c0,.07-.12.12-.24.22-.08-.12-.13-.19-.18-.26.09-.05.17-.14.25-.14.06,0,.17.12.17.18M1415.11,210.36c-.13.01-.27-.01-.42-.02.54-.9,1.86-1.03,2.49-.18-.75.07-1.41.14-2.07.2M1419.79,222.43c.36-.54.48-.54,1.1.03-.45.43-.72-.11-1.1-.03M1412.66,173.91c.04.05.08.1.12.16-.2.1-.39.2-.59.3-.04-.04-.07-.08-.11-.12.19-.11.39-.22.58-.34M1412.71,185.87c.66-.48.94-.44,1.29.2-.49-.08-.86-.14-1.29-.2M1412.16,182.47c.18.1.35.21.54.29.13.06.3.14.42.11.41-.11.7.09.8.39.13.4.41.64.84.84-.99.23-2.15-.46-2.59-1.62M1415.43,184.47v-.09c.46.02.91.04,1.37.07v.22c-.45-.07-.91-.14-1.37-.2M1416.01,191.44c.06.04.12.08.18.12-.09.11-.19.22-.29.32,0,0-.12-.07-.11-.08.07-.12.14-.24.22-.36M1418.4,215.96c-.12-.17-.52-.33-.04-.59.01.23.02.41.04.59M1418.05,214.95c.17-.29.43-.21.67-.17-.21.34-.22.34-.67.17M1419.34,215.03c-.2-.09-.39-.17-.58-.25,0-.22.12-.3.36-.24.26.06.36.19.22.49M1416.17,193.25c-.06-.07-.12-.14-.18-.2.35-.24.71-.49,1.06-.73.04.04.07.09.11.14-.22.39-.7.49-.99.8M1421.42,219.82c-.31-.1-.62-.2-.93-.3.02-.06.04-.12.07-.19.31.09.62.19.92.28-.02.07-.04.14-.06.21M1419.51,167.16c-.4.24-.66.4-1.02.61q.13-.52,1.02-.61M1413.61,169.89c.65-.44,1.26-.95,1.97-1.3.72-.36,1.53-.58,2.35-.77-1.36.82-2.8,1.5-4.32,2.07M1416.91,169.54c-.19.11-.37.22-.56.32-.03-.04-.07-.08-.1-.11.18-.11.36-.22.55-.33.04.04.08.08.12.12M1422.41,221.57c-.18-.11-.39-.18-.65-.29.06-.07.15-.12.18-.2.03-.09,0-.19,0-.32.25,0,.51,0,.79,0-.09.11-.16.19-.23.28.11.06.21.15.33.16.22.02.44,0,.69,0-.41.73-.47.75-1.09.38M1425.34,219.26c-.04-.09-.34-.12-.52-.13-.51-.03-1.01-.03-1.52-.04,0-.07,0-.15-.01-.22.92-.08,1.84-.17,2.73-.25.19.39.35.72.51,1.06-.4-.15-.96.17-1.19-.41M1420.33,168.04c.36-.43.79-.75,1.45-.7-.48.23-.97.47-1.45.7M1432.84,162.85c-.34.15-.83.32-.95.5-.51.78-1.45,1.12-2.27,1.25-1.12.17-2.03.77-3.06,1.09-.12.04-.24.12-.35.15-.29.06-.67.18-.85.11-.33-.12.07-.36.23-.58.3-.42.48-.85.77-1.39-.57.25-.92.4-1.28.56l-.12-.09c.14-.14.24-.32.41-.4,1.04-.49,2.09-.96,3.14-1.43.18-.08.39-.1.64-.07-.7.36-1.4.73-2.16,1.13.61.38,1.04-.28,1.71-.43-.3.36-.54.65-.91,1.08.88-.36,1.62-.66,2.35-.96h0c1.38-.04,2.66-.87,4.17-1.28-.49.45-1.01.57-1.47.77M1432.84,162.41c-.08-.2-.14-.36-.2-.5.64-.53,1.27-.79,2.1-.58-.65.37-1.23.7-1.9,1.08M1436.16,160.48s-.04-.1-.06-.15l1.04-.46c.03.09.07.18.1.27l-1.08.35ZM1436.63,158.91c.13,0,.26.03.38.15-.39.24-.78.49-1.17.73.03.04.06.09.08.14.4-.2.8-.41,1.21-.6.41-.19.85-.34,1.45-.48-.09.07-.16.18-.26.22-1.74.77-3.48,1.53-5.21,2.31-.66.3-1.47.49-1.77,1.15-.05.1-.42.2-.61.33-.21.14-.39.3-.57.45,0-.19.01-.38.02-.58-.21.03-.42.06-.8.11.4-.23.64-.38.9-.52-.11-.12-.2-.22-.33-.35.67-.42,1.27-.85,1.93-1.17.41-.21.95-.21,1.39-.4.9-.38,1.78-.81,2.67-1.22.23-.11.46-.24.67-.27.34-.22.71-.34,1.09-.4.63-.37,1.2-.62,1.87-.8.81-.23,1.61-.67,2.45-.95-1.13.49-2.14,1.21-3.39,1.71-.29.29-.64.33-1,.34-.21.06-.42.11-.65.15.07-.05.14-.09.22-.14-.19,0-.38.03-.55.09M1479.37,159.26c.03-.28.25-.3.66-.06-.25.02-.45.04-.66.06M1484.86,159.61c-.36,0-.72.01-1.08,0-.51-.03-1.03.02-1.48-.34-.2-.16-.58-.13-.88-.19.54-.18,1.06-.52,1.51.04.01.02.04.05.06.05.91-.03,1.82.13,2.73.01.36-.04.54.04.91.36-.71.03-1.24.06-1.78.07M1497.75,159.64c-1.25.03-2.5.17-3.74.11-1-.04-1.99-.08-2.99-.06-.91.01-1.81-.02-2.72,0-.55.02-1.03-.1-1.5-.33.09-.6.5-.22.77-.27.08-.4-.19-.5-.51-.53-.99-.07-1.99-.11-2.98-.18-.69-.05-1.39-.12-2.08-.19,0-.05,0-.1,0-.15.98-.03,1.97-.05,2.96-.09,1.21-.04,2.43-.09,3.64-.12.28,0,.55.08.83.09.35.02.7,0,1.05,0,.11,0,.22-.06.32-.05,1.79.21,3.57.41,5.35.65.38.05.72.24,1.09.34.48.13.97.23,1.52.36-.28.36-.63.4-1.03.41M1497.43,158.48c.73-.22,1.18.02,1.64.23-.55.19-1.03.06-1.64-.23M1516.82,159.35c-1.03,0-2.06,0-3.09.01-2.06.01-4.12.02-6.18.03-.42,0-.83-.05-1.25-.05-.53,0-1.05.07-1.57.04-1.51-.07-3.05.31-4.53-.25-.07-.02-.13-.08-.18-.26.48.02.95.03,1.43.05,0-.04.02-.08.03-.12-.53-.19-1.07-.38-1.72-.62.92-.24,1.75-.19,2.57-.16.85.04,1.7,0,2.55.23.35.1.79-.17,1.19-.16,2.56.04,5.12.11,7.67.17.11,0,.23.02.33,0,1.66-.52,3.36-.15,5.04-.21.51-.02,1.03.08,1.55.13,0,.08,0,.16,0,.24l-4.68.04s-.01.09-.02.14c.45.09.91.19,1.37.28.05.43-.22.46-.51.46M1524.16,159.45c-1.05-.04-2.09.03-3.14,0-1.05-.04-2.11-.08-3.16-.12,0-.07,0-.14.01-.2,1.02-.05,2.03-.11,3.05-.13.5,0,.99.11,1.49.11.55,0,1.1-.09,1.64-.15,1.09-.12,2.1.29,3.16.4-1.01.33-2.05.15-3.06.1M1528.32,158.73c-.41-.01-.83.02-1.24,0-.41-.02-.82-.12-1.23-.1-1.35.09-2.69-.18-4.04-.13-.2,0-.4-.06-.61-.09,0-.07.01-.14.02-.21,4.24.03,8.48.22,12.71.43,0,.06.02.11.03.17-.13.04-.25.13-.38.13-1.75-.06-3.5-.14-5.26-.2M1532.33,159.52c-.18,0-.36,0-.54,0v-.08h.53s0,.07,0,.07ZM1532.92,159.38c.6.05,1.2.1,1.9.16-.53.24-1.25.22-1.9-.16M1534.21,158.88q.51-.21,1.04.09c-.31-.02-.62-.05-1.04-.09M1535.54,158.75c.32.02.52.02.85.04-.36.33-.56.38-.85-.04M1537.33,159c.65-.19,1.38-.16,2.31.11-.8.35-1.54-.02-2.31-.11M1543.79,159.53c-1.26-.09-2.52-.2-3.78-.31,0-.06.01-.13.02-.19,1.32,0,2.64.14,3.96.15,0,.06.02.12.02.18-.08.06-.16.17-.23.17M1544.41,156.71c-.77,0-1.53,0-2.3.02-.53.02-1.09-.18-1.59.22-.11.08-.5.01-.59-.1-.21-.27-.44-.19-.67-.14-.91.22-1.79.25-2.69-.09-.24-.09-.55-.06-.83-.04-1.87.11-3.71-.08-5.55-.31-.44-.06-.89-.03-1.33-.04-1.86-.02-3.72-.04-5.58-.07-2.01-.03-4.02-.03-6.02-.14-3.73-.2-7.45-.1-11.18-.09-1.89,0-3.78.09-5.67.08-1.52,0-3.05-.12-4.57-.15-1.19-.02-2.39.05-3.58.04-1.83-.01-3.67-.06-5.51-.08-.93-.01-1.87.02-2.79-.01-.34-.01-.67-.16-.99-.37.73-.08,1.46-.2,2.2-.23.79-.04,1.59.01,2.38.02,1.27,0,2.55,0,3.83.01,1.53.02,3.06.09,4.59.11.43,0,.87-.09,1.3-.14.08,0,.17-.07.23-.05.91.35,1.86.16,2.79.2,1.44.06,2.89.1,4.33.11.85,0,1.71-.05,2.56-.07.52,0,1.06-.06,1.56.04,1.24.25,2.44-.09,3.66-.11,1.08-.02,2.15-.11,3.23-.09,1.75.03,3.5.12,5.25.17,1,.03,2-.02,3,.02,1.14.04,2.27.15,3.41.21,1,.05,2,.07,3,.11,1.48.06,2.95.1,4.42.19,2.89.17,5.78.35,8.66.53.35.02.71.05,1.06.07,0,.05-.01.1-.01.14M1506.55,154.73c.49-.34,1.88-.38,3.15-.02-1.03,0-2.07.01-3.15.02M1520.22,154.72c.39-.22,6.92,0,7.88.23-.46.07-.74.16-1.03.15-.66,0-1.32-.07-1.99-.09-.82-.02-1.65.02-2.47-.02-.8-.04-1.61-.15-2.4-.28M1529.11,155.1s.01-.08.02-.12c.43,0,.86,0,1.29-.01v.12c-.43,0-.87,0-1.3,0M1530.86,155.16c0-.06-.01-.11-.02-.17.17,0,.35.02.52.02,0,.05,0,.09,0,.14-.17,0-.33,0-.5,0M1531.96,155.28c.38-.36.52-.36,1.36-.01-.44,0-.88,0-1.36.01M1534.27,155.38c0-.09,0-.19,0-.28,2.3.12,4.61.25,6.91.38,0,.07,0,.15-.01.22-2.3-.11-4.61-.21-6.91-.31M1542.1,155.68c0-.06,0-.12,0-.18.67.05,1.34.1,2.14.16-.68.26-1.48.24-2.15.01M1547.15,156.84c-.01.08-.02.17-.03.25-.78-.07-1.56-.14-2.34-.21,0-.07,0-.14,0-.2.82-.16,1.57.17,2.36.17M1545.83,155.97c0-.06,0-.12,0-.18.25,0,.5.02.94.03-.43.32-.68.22-.94.15M1546.88,156.05c0-.08.01-.16.02-.24.26.04.53.07.78.11,0,.04-.01.08-.02.12-.26,0-.52,0-.78,0M1546.59,159.6c-.38-.01-.75-.03-1.13-.04,0-.08,0-.16,0-.24.38.04.76.09,1.14.14,0,.05,0,.1-.01.15M1546.52,157.44c.6-.3.97-.31,1.74-.03-.65.21-1.13.14-1.74.03M1549.2,157.11l-.33-.09s0-.04.01-.07c.11,0,.23,0,.34,0,0,.05-.01.1-.02.15M1551.13,157.25c-.39-.02-.78-.04-1.17-.05,0-.04,0-.08,0-.12.41,0,.82,0,1.23-.01-.02.06-.04.12-.06.19M1556.14,156.42c1.47.11,2.94.23,4.41.35.24.02.51,0,.55.32-.99-.08-1.98-.17-2.98-.24-2.53-.17-5.05-.31-7.58-.47-.47-.03-.94-.07-1.41-.13-.17-.02-.32-.13-.66-.28.31-.02.42-.04.52-.04,2.38.16,4.76.32,7.15.49M1533.57,153.11c.33,0,.65,0,.98,0-.31.27-.64.28-.97.2,0-.06,0-.13-.01-.19M1512.83,152.39c.18-.04.36-.14.53-.13.83.03,1.66.09,2.48.13.19.01.4.05.58.02.9-.17,1.79,0,2.68.06.92.05,1.84.09,2.76.12,1.86.06,3.72.11,5.58.17.41.01.82.05,1.27.08-.09.33-.33.27-.53.26-1.92-.06-3.83-.14-5.74-.2-.86-.03-1.73-.04-2.59-.06-2.17-.06-4.34-.11-6.51-.17-.17,0-.35-.06-.52-.09,0-.06,0-.13,0-.19M1477.91,153.33c1.13-.06,2.25-.15,3.38-.18.69-.01,1.37-.01,2.06-.17.55-.13,1.16-.11,1.73-.08.68.03,1.3-.09,1.94-.3.4-.13.86-.17,1.29-.19,1.62-.04,3.23,0,4.85-.07,1.76-.08,3.5.07,5.25.13,1.33.04,2.66.01,3.99.02.2,0,.44-.06.57.03.72.48,1.58.15,2.35.43.06.17.14.37.23.6.21-.06.37-.09.52-.15.64-.24,1.29-.33,1.96-.18,1.02.23,2.04.08,3.06.06,1.58-.03,3.17,0,4.76,0,.83,0,1.68.06,2.48-.1.65-.13,1.22.05,1.8.13.84.12,1.64-.1,2.47-.05.85.05,1.72-.16,2.54.24.15.07.42-.08.63-.08.95,0,1.89,0,2.84.03.13,0,.27.06.39.12.36.2.74.22,1.12.07.49-.18.93-.12,1.28.25,1.09-.33,2.17-.37,3.26-.07.18.05.38.03.57.03.49,0,.97-.08,1.46.12.41.17.88.15,1.28-.31.22.71.82.65,1.34.69,1.29.11,2.59.19,3.89.26,1.13.06,2.25.1,3.38.15,1.05.05,2.1.1,3.15.17.29.02.57.15,1.02.28-1.42.46-2.67.26-3.9.18-1.6-.1-3.19-.3-4.8-.41-1.12-.08-2.27,0-3.37-.15-.99-.14-1.97-.01-2.96-.14-.87-.12-1.77-.03-2.65-.06-2.42-.08-4.85-.17-7.27-.27-3-.11-6-.23-9.01-.33-1.03-.03-2.06.01-3.08-.01-.69-.01-1.38-.09-2.07-.12-.72-.02-1.44-.04-2.16-.02-.97.03-1.93.1-2.9.13-1.1.03-2.21.04-3.31.05-.11,0-.23-.04-.33,0-1.4.51-2.84.23-4.27.26-.49,0-1.03-.1-1.5.22-.14.09-.38.05-.57.06-.74.05-1.49.1-2.23.14-.5.03-.99.04-1.4-.33-.26-.23-.59-.23-.93-.21-.74.04-1.5.1-2.16-.35-.1-.07-.33-.14-.39-.09-.74.61-1.35-.14-2.01-.13-.62,0-1.22-.33-1.77-.17-1.06.3-2.09.15-3.13.1-.67-.03-1.33.03-2,.05-.63.02-1.26-.13-1.89.05-.23.06-.51-.05-.77-.08v-.27ZM1477.43,153.52c-.41.29-1.96.49-2.68.3.84-.38,1.72-.52,2.68-.3M1476.16,159.53c-.38-.03-.57-.04-.92-.07.4-.38.57-.23.92.07M1458.36,153.82c-.3-.01-.59-.02-.91-.04.46-.34.47-.34.91.04M1457.02,153.8c-.33.18-.59.15-.9.04q.37-.19.9-.04M1454.62,153.81c-.05.22-.06.46-.11.47-.46.08-.96.31-1.47-.24.55-.08,1.01-.15,1.57-.23M1451.8,155.01c0-.12.01-.29.02-.5.19-.12.39-.31.67-.33.25-.13.46-.24.66-.34.02.04.04.07.06.11-.18.07-.35.15-.56.23.11.01.23.06.37.13-.26.16-.45.27-.65.39.03.09.04.23.08.23.26.04.52.05.78.08.12.01.23.05.41.09-.34.53-.74.58-1.26.28.08.43.34.49.57.39,1.09-.47,2.18.01,3.36-.08-.51.57-1.11.24-1.65.39.15.06.31.12.5.2-.14.26-.43.27-.54.14-.36-.4-.63-.14-.91.05q-.6-.44-1.85-.31c.07-.17.13-.32.26-.61-.67,0-1.21,0-1.84.01.37-.68,1.02-.3,1.51-.56M1450.86,154.88c-.27,0-.55,0-.85,0q.38-.3.85,0M1449.74,155.47s.1.08.2.17c-.14.05-.22.1-.31.1-.04,0-.09-.09-.13-.14.08-.05.15-.11.24-.13M1443.69,157.86c0-.07,0-.14,0-.2.19-.03.37-.06.55-.09.01.06.02.12.04.18-.2.04-.4.08-.59.12M1444.66,156.93c-.25.04-.5.08-.93.15.2-.3.3-.43.41-.59.19.1.36.19.53.28v.16ZM1447.12,154.55h.87s0,.04,0,.07c-.29.03-.58.06-.87.08,0-.05,0-.1-.01-.15"/>
    <path class="cls-1" d="M1439.41,220.54c.11-.1.2-.19.28-.27-.14.07-.27.15-.41.23.04.01.08.03.13.04"/>
    <path class="cls-1" d="M1423.84,227.29c.28.07.52.15.7.41.18-.14.37-.28.59-.37-.02-.05-.3-.58-.32-.62-.05.02-.09.04-.14.07.01.05.03.1.04.15-.29.12-.58.24-.87.36"/>
    <path class="cls-1" d="M1444.42,154.51c-.2,0-.4-.03-.6-.13-.11-.06-.45.32-.7.49-.06.04-.17,0-.25.02-1.13.25-2.26.5-3.39.75-.76.17-1.51.43-2.27.49-1.01.07-1.74.7-2.66.94.53.01,1.02-.07,1.52-.14.52-.07,1.05-.13,1.58-.17.49-.04.97-.32,1.5-.11-.31.15-.64.26-.97.3-.77.1-1.55.11-2.3.27-.39.08-.79.33-1.06.61-.33.34-.47.51-.83.56-.77.11-1.54,0-2.32.35-.87.37-1.85.5-2.79.72-1.12.27-2.24.51-3.35.79-.24.06-.49.12-.73.19-.97.43-1.94.86-2.9,1.3-.67.3-1.33.59-1.99.9-.44.2-.87.41-1.31.61.64-.12,1.31-.13,1.79-.41.51-.29.97-.61,1.56-.8,1.6-.51,3.15-1.17,4.76-1.64,1.94-.57,3.92-1.01,5.88-1.49.37-.09.82-.01,1.13-.19.48-.27.9-.25,1.34-.04.96-.39,1.93-.77,2.87-1.19,2.18-.97,4.35-1.98,6.52-2.98"/>
    <path class="cls-1" d="M1411.71,166.41s0,.02,0,.03c.03.74-.53,1.18-.94,1.69-.25.3-.24.6-.14.96.06.19.1.39.14.59.08-.04.17-.08.24-.11,1.6-.7,3.21-1.4,4.81-2.12,3.21-1.44,6.43-2.87,9.63-4.33,2.01-.92,4.02-1.83,6-2.85.28-.14.56-.28.85-.41-.77-.07-1.63,0-2.41.31-.61.24-1.27.38-1.91.55-.69.18-1.43.23-2.05.51-1.3.58-2.7.88-3.99,1.48-1.17.55-2.43.92-3.65,1.37-.66.24-1.33.49-2,.73l-.06-.09c.19-.17.37-.33.56-.49-.19.04-.38.09-.58.13-1.06.49-2.12.99-3.19,1.48-.43.2-.86.4-1.3.59M1421.27,163.91c-.42.5-.85.65-1.54.49.47-.15.94-.3,1.54-.49M1416.4,166.73c.03.06.06.11.09.17-1.02.47-2.04.94-3.06,1.41.84-.73,1.9-1.17,2.97-1.58"/>
    <path class="cls-1" d="M1444.85,220.22c-.04-.05-.08-.1-.12-.15-.19.11-.39.22-.58.34.04.04.07.08.11.12.2-.1.39-.2.59-.31"/>
    <path class="cls-1" d="M1436.79,223.84c-.18.11-.34.23-.5.35l.09.09c.22-.12.44-.23.75-.39-.17-.03-.29-.08-.34-.05"/>
    <path class="cls-1" d="M1434.4,225.13c.37-.15.72-.29,1.09-.43-.51-.17-.71-.09-1.09.43"/>
    <path class="cls-1" d="M1430.06,224.72s.04,0,.06,0c-.17.16-.34.32-.51.48.04.04.08.07.12.11.97-.5,1.94-.98,2.89-1.5.32-.17.59-.41.86-.64.14-.11.27-.22.41-.32-.02-.14,0-.24.06-.33-.82-.01-1.54.82-2.37.71-.05,0-.25.12-.28.19-.27.57-.72.25-1.06.36-.02,0-.03.02-.05.02-.2.17-.41.34-.62.51.25.07.48.12.74.19-.09.07-.17.15-.26.22"/>
    <path class="cls-4" d="M1449.91,276.23c.47.14.85-.04,1.22-.27-.01,0-.03,0-.04.01,0,0,0,0,0-.01-.13,0-.26,0-.39-.01-.14-.01-.24-.05-.31-.11-.1.04-.2.07-.29.11-.06.1-.12.19-.18.29"/>
    <path class="cls-4" d="M1451.76,274.91s.01.01.02.02c0,0,.01,0,.02-.01-.01,0-.03,0-.04,0"/>
    <path class="cls-4" d="M1450.28,275.67s0-.01,0-.02c0,.01-.01.02-.02.03,0,0,.02,0,.02-.01"/>
    <path class="cls-4" d="M1460.16,271.03c-.62.15-1.05.22-1.45.37-.46.18-.91.42-1.34.66-.25.14-.53.32-.65.49-.09.13,0,.29.05.5.41-.22.83-.43,1.24-.65-.01-.04-.03-.08-.04-.12.69-.39,1.35-.77,2.19-1.25"/>
    <path class="cls-4" d="M1452.28,271.9c1.12-.6,2.25-1.19,3.4-1.75.6-.3,1.24-.53,2.06-.88-.25.25-.32.32-.39.39,1.91-.91,3.74-1.79,5.59-2.66,1.16-.54,2.34-1.05,3.51-1.59.85-.39,1.67-.82,2.52-1.2,4.14-1.87,8.29-3.72,12.42-5.6,1.09-.5,2.18-1,3.27-1.51.54-.48,1.32-.72,1.97-1.04,1.71-.84,3.45-1.62,5.18-2.42,1.96-.89,3.92-1.77,5.88-2.66,2.04-1,4.07-2.01,6.13-2.97,1.41-.66,2.78-1.5,4.35-1.85.2-.04.41-.26.62-.39.25-.15.48-.33.75-.46.84-.42,1.69-.83,2.54-1.24-.71.32-1.42.65-2.14.96-2.14.96-4.4,1.72-6.47,2.79-1.97,1.01-3.98,1.93-5.99,2.85-3.2,1.46-6.41,2.89-9.63,4.33-1.6.71-3.2,1.41-4.81,2.12-.19.08-.45.23-.59.21-.99-.1-1.79.49-2.49.99-.83.59-1.72.87-2.65,1.16-.4.13-.81.23-1.19.41-3.65,1.7-7.29,3.42-10.94,5.13-1.93.91-3.87,1.8-5.83,2.68-.58.26-1.19.45-1.87.7-.02-.13-.05-.29-.08-.44-.81.15-.41.45-.51.65-.69.41-1.35.82-2.07,1.24-.21-.13-.4-.24-.57-.36-.1.01-.2.03-.3.05,0,.11,0,.21,0,.32.05.65.04.74-.69,1.04,0,.01,0,.02.01.03-.48.3-.97.6-1.54.75,0-.05-.02-.1-.03-.15-.21.09-.43.17-.64.27.36.17.61.4,1.2.09"/>
    <path class="cls-4" d="M1442.15,276.6c-.33.08-.54.14-.75.19.75-.48,1.56-.84,2.36-1.19.04-.02.1.02.17.03-.26.18-.5.35-.87.61,1.71-.34,2.89-1.29,4.23-1.91,1.41-.65,2.5-1.61,3.72-2.49-.65.27-1.32.54-2.02.83-.17-.23-.34-.47-.55-.77-.6.29-1.24.6-1.94.94-.04.16-.08.35-.13.54-.98-.09-1.88.37-2.76.85-.99.55-1.92,1.17-2.92,1.71-.88.47-1.82.85-2.82,1.32.03.62-.58.96-1.37,1.37-.02.18-.06.35-.11.53.15,0,.25,0,.28,0,.02.1.05.19.07.29,1.24-.59,2.47-1.18,3.73-1.74.65-.29,1.17-.59,1.68-1.09M1437.91,277.75s-.04-.08-.06-.12c.55-.29,1.11-.58,1.66-.87.03.04.06.07.08.11l-1.69.88Z"/>
    <path class="cls-4" d="M1455.63,267.94c.06.05.11.1.16.15.33-.2.65-.41.98-.62-.04-.04-.09-.08-.13-.12-.34.2-.68.39-1.01.59"/>
    <path class="cls-4" d="M1474.57,266.25c.12-.07.24-.14.35-.22-.13.02-.23.09-.35.22"/>
    <path class="cls-4" d="M1451.75,270.52s.04.05.06.07c.58-.3,1.17-.61,1.75-.91-.02-.02-.04-.05-.05-.07-.58.3-1.17.61-1.75.91"/>
    <path class="cls-4" d="M1447.35,276.72c-.04.08-.09.17-.14.27.82-.45,1.6-.88,2.38-1.31-.1.03-.2.06-.31.09-.82.21-1.34.6-1.93.95"/>
    <path class="cls-4" d="M1461.99,271.24s-.06-.07-.09-.1c-.21.11-.41.21-.62.32.04.04.08.09.12.13.19-.12.39-.23.58-.35"/>
    <path class="cls-4" d="M1485.44,255.87c1.02-.47,2.04-.94,3.06-1.41-.03-.06-.06-.12-.09-.17-1.07.41-2.13.85-2.97,1.58"/>
    <path class="cls-4" d="M1449.08,271.84c.27.05.43.08.77.15-.05-.61.72-.53,1.16-.83-.36-.12-.66-.23-1.08-.38-.3.38-.57.71-.85,1.06"/>
    <path class="cls-4" d="M1455.18,275.2c-.07.09-.15.17-.24.24.34-.09.64-.19.87-.36.32-.23.63-.4.96-.57-.66.04-1.3.35-1.59.69"/>
    <path class="cls-4" d="M1461.48,270.43c.11.03.21.06.31.08.49-.18.96-.39,1.34-.76.72-.05,1.11-.5,1.59-.83-.25.1-.51.2-.76.27-1,.3-1.69.78-2.49,1.24"/>
    <path class="cls-4" d="M1457.18,273.7c-.25.23-.46.42-.68.61-.17-.07-.28-.11-.46-.18-.29.42-.7.7-1.28.69-.08-.16-.16-.32-.28-.56.67-.35,1.33-.69,1.99-1.04-.83.35-1.67.69-2.5,1.03.1.07.18.13.27.19-.15.09-.31.18-.46.28-.04.05-.07.09-.1.14.28.12.55.26.83.4.97-.46,1.95-.9,2.93-1.33-.08-.07-.16-.14-.25-.22"/>
    <path class="cls-4" d="M1455.27,273.08c-.3.16-.59.32-.88.48-.21.12-.39.32-.58.48.66-.28,1.32-.58,1.92-1.02-.15.01-.31.03-.45.06"/>
    <path class="cls-4" d="M1462.15,271.78c.5-.23,1-.45,1.5-.68,0,0-.02,0-.02,0-.08-.02-.17-.05-.26-.08-.31.19-.61.39-.91.59-.1.07-.2.12-.31.18"/>
    <path class="cls-4" d="M1460.81,272.39c-.79.3-1.57.54-2.2.88-.05.06-.09.12-.14.17.05-.02.1-.04.15-.07.73-.33,1.46-.66,2.19-.99"/>
    <path class="cls-4" d="M1464.67,270.43s0,0,0,0c.14,0,.28,0,.42.02.14-.06.27-.12.41-.19-.4.08-.61.11-.82.17"/>
    <path class="cls-4" d="M1457.16,274.64h0s0,.04,0,.06c.08,0,.12.02.15.01.59-.28,1.17-.6,1.78-.84.62-.25.97-.75,1.74-.93.37-.09.75-.32,1.12-.56.07-.08.15-.15.24-.22-.46.21-.93.41-1.39.62-1.24.56-2.43,1.24-3.63,1.86"/>
    <path class="cls-4" d="M1452.82,274.22s-.25.08-.33.15c-.14.12-.25.27-.38.4.34-.17.69-.31,1.05-.46-.1,0-.22-.03-.34-.09"/>
    <path class="cls-4" d="M1484.09,261.8l.11.12c.09-.05.19-.1.28-.14-.09-.02-.18-.03-.27-.05l-.12.07Z"/>
    <path class="cls-4" d="M1470.88,265.75c-.32.11-.62.28-.92.47-.14.13-.27.25-.41.38.04.04.08.07.12.11.54-.28,1.09-.56,1.64-.84.25-.13.5-.26.75-.39.17-.09.34-.18.51-.27.13-.07.25-.16.37-.25-.72.08-1.38.56-2.06.79"/>
    <path class="cls-4" d="M1568.1,156.3c1.26.14,2.51.38,3.78.51,1.26.13,2.52.25,3.75.52-.02.07-.04.15-.05.22-1.12-.13-2.25-.28-3.37-.38-2.08-.19-4.17-.36-6.26-.52-.72.31-1.46.59-2.17.91-1.82.84-3.61,1.74-5.42,2.57-3.47,1.59-6.95,3.16-10.43,4.74-2.3,1.04-4.6,2.08-6.91,3.12-3.01,1.36-6.01,2.72-9.02,4.08-1.75.8-3.5,1.59-5.25,2.39-2.77,1.27-5.54,2.53-8.31,3.81-1.51.69-3,1.42-4.51,2.12-2.56,1.18-5.13,2.34-7.7,3.52-2.72,1.25-5.42,2.51-8.15,3.75-4.57,2.08-9.16,4.11-13.72,6.2-2.85,1.3-5.65,2.69-8.48,4.01-4.45,2.07-8.91,4.13-13.38,6.18-2.84,1.3-5.7,2.55-8.55,3.83-.67.3-1.33.59-1.99.9-2.29,1.06-4.58,2.13-6.87,3.19-2.3,1.06-4.61,2.08-6.9,3.16-2.9,1.37-5.8,2.77-8.69,4.16.13.04.25.18.43.4-.75.36-1.77.61-2.68.69-1.96.95-3.91,1.91-5.87,2.86.21.09.35.27.41.6-.33.03-.63.05-1.01.09.01-.15.03-.29.04-.41-.32.15-.63.3-.95.46.18.47.48.91.73,1.37.41-.45.07-.75-.16-1.13.61.2,1.21-.07,1.69.41-.08.09-.17.18-.26.27.06.07.13.13.21.18.62-.29,1.25-.57,1.87-.86.08-.41.22-.61.64-.46,0,.07,0,.12-.02.17.22-.1.44-.2.65-.3.13-.06.26-.12.39-.19-.15.03-.38-.04-.81-.17.47-.16.8-.27,1.21-.41-.11.27-.18.43-.28.51.47-.22.94-.44,1.41-.66-.33-.02-.61-.1-.93-.23.94-.27,1.55-.37,2.05-.29,2.63-1.23,5.26-2.47,7.89-3.69.37-.18.79-.28,1.19-.41.93-.3,1.81-.57,2.65-1.16.69-.49,1.5-1.08,2.48-.99.14.01.39-.13.59-.22,1.6-.7,3.21-1.4,4.81-2.12,3.21-1.44,6.43-2.87,9.63-4.33,2.01-.92,4.02-1.83,5.99-2.85,2.06-1.06,4.32-1.83,6.47-2.79,2.82-1.26,5.61-2.57,8.42-3.85.41-.19.83-.35,1.25-.52-.82.59-1.67,1.06-2.56,1.49-1.77.85-3.56,1.67-5.34,2.5-.54.25-1.12.46-1.64.75-1.51.84-3.1,1.53-4.71,2.17-.83.33-1.69.61-2.5.97-1.13.51-2.21,1.09-3.33,1.6-2.56,1.18-5.14,2.32-7.7,3.49-1.74.79-3.48,1.57-5.18,2.41-.76.37-1.68.63-2.21,1.3.19.02.34.04.49.05-.11.12.04.36-.4.33-.08,0-.33.16-.39.25-.2.3-.44.39-.78.35-.14-.02-.3-.07-.41-.03-1.05.43-2.1.85-3.13,1.31-1.17.52-2.24,1.14-3.21,1.9-.85.67-1.99,1.01-2.98,1.53-.04.02-.12-.03-.33-.09.61-.29,1.12-.53,1.63-.78-.04-.07-.08-.14-.12-.2-1.63.93-3.47,1.49-5.28,2.56.39-.02.53-.04.8-.05-1.56.77-2.87,1.81-4.75,1.82.01.22.02.39.02.4-.92.3-1.65.53-2.36.76-.01.26-.02.41-.03.56-.22.04-.43.09-.64.14.08.1.16.26.29.51-.12.07-.25.15-.36.22-.08-.06-.14-.09-.17-.13-.09-.15-.19-.3-.28-.46-.25.07-.5.15-.75.24.02.25.09.42.23.57.13.15.28.25.44.33.5-.23.99-.46,1.49-.69-.05-.07-.09-.14-.14-.23.12.06.24.1.35.13.33-.15.66-.31.99-.46.05-.02.09-.04.14-.06.02.04.29.56.32.61-.22.1-.4.23-.59.37.06.08.1.18.14.3-.14-.04-.27-.07-.39-.11-.27.2-.56.38-.94.44.07.39-.06.84.43.94.27-.43.5-.81.71-1.15.81.02,1.14.88,1.93.72.02,0,.04.03.08.06-.02.11-.05.23-.07.35.16.07.3.15.51.24-.51.48-1.04.78-1.14,1.52-.13.91-.22.96.8.94.08,0,.15.04.32.08-.01.19.03.4-.05.56-.08.15-.27.22-.12.46.06.09-.09.33-.2.46-.61.73-.61.73-1.57.34.16.24.24.38.34.51.15.18.45.35.46.52.01.48.28.71.69.9.23.11.37.31.17.67-.21-.5-.61-.54-1.13-.47.23.13.4.22.47.26,0,.38,0,.67,0,.95.22.06.4.1.58.15q-.27.7-.65.79c-.28.52-.52.95-.75,1.38.37.11.69.2,1.17.33-.34.19-.51.29-.68.39.25.3.18.48-.15.61-.26.11-.51.23-.79.36.46.49-.28.72-.02,1.16-.4,0-.68,0-.96,0-.01.06-.02.11-.03.17.23.09.46.17.69.26.09.27.19.53.29.83-.79.17-1.18.68-1.47,1.29.59.4.89,1.01,1.58,1.14-.17.3-.38.54-.43.8-.04.19.04.5.19.61.34.25.76.41,1.09.58-.36.37-.69.72-1.08,1.13.52.17.91.28,1.3.43.61.23.85.71.72,1.34-.26.22-.74.06-.95.56.43.24.86.48,1.25.7-.33.24-1.1.14-1.29.87.64-.17,1.16-.04,1.72.35-.72.29-1.5.33-1.8,1.04-.31,0-.58,0-.87,0-.14.2-.27.4-.39.58.32.37,1.03.36,1.03,1.09-.43,0-.82,0-1.26,0,.26.19.57.3.59.45.04.32.23.33.46.41.2.07.41.19.54.35.32.37.73.53,1.22.56.39.02.55.3.67.61.06.16.15.33.15.5.01.34.13.6.52.55.28-.03.57-.18.82-.32.13-.07.17-.27.28-.39.17-.19.36-.22.5-.09-.14.43-.26.81-.39,1.22.36.05.61.08.86.12,0,.22,0,.44,0,.79.37-.32.64-.55.93-.81-.13-.14-.24-.24-.38-.39.35-.2.4-.74.99-.73,0,.21-.07.46.02.61.23.35.07.56-.13.84-.35.49-.63,1.02-.92,1.5.26.27.43.45.62.64-.39.43-.73.1-1.01,0-.3.27-.56.49-.9.79.25.07.42.17.59.16.19,0,.36-.12.55-.17.68-.18.87.03.94.7.09.9-.11,1.86.46,2.69.04.06.09.12.11.15.24-.04.45-.07.74-.12-.2.44-.34.76-.52,1.16-.11-.14-.18-.23-.24-.31.07.29.14.57.23.92-.09.19-.14.57-.36.69-.67.36-.63.82-.4,1.37.92-.25,1.24-.03,1.46.49.1.24.11.57.01.82-.07.18-.37.28-.57.41.08.2.3.48.23.6-.27.42.09.38.24.48.27-.25.49-.46.77-.72.1.26.12.46.23.56.12.1.33.11.48.15-.01.31-.03.55-.04.86.27-.14.45-.22.73-.36-.07.31-.12.49-.18.74.12.05.24.1.36.15.2-.08.39-.18.57-.3-.17.11-.34.22-.52.32.33.13.66.27.99.4.21.93-.65,1.56-.79,2.5.51-.2.95-.38,1.39-.55.74-.43,1.47-.86,2.22-1.28.84-.47,1.75-.84,2.61-1.28,2.07-1.06,4.03-2.25,6.13-3.28,1.02-.5,1.94-1.15,2.93-1.69.89-.49,1.82-1.13,2.73-1.35,2.13-.53,3.82-1.71,5.69-2.61,3.2-1.53,6.38-3.11,9.57-4.66,3.09-1.5,6.17-2.99,9.28-4.45,2.29-1.08,4.6-2.1,6.9-3.16,2.29-1.06,4.58-2.13,6.87-3.19.66-.31,1.33-.6,1.99-.9,2.85-1.27,5.71-2.53,8.55-3.83,4.47-2.04,8.93-4.1,13.38-6.18,2.84-1.32,5.64-2.71,8.49-4.01,4.56-2.09,9.15-4.13,13.72-6.2,2.72-1.24,5.43-2.51,8.15-3.75,2.56-1.18,5.14-2.34,7.7-3.52,1.51-.69,3-1.42,4.51-2.12,2.77-1.28,5.54-2.54,8.31-3.81,1.75-.8,3.5-1.59,5.25-2.39,3-1.36,6.01-2.72,9.02-4.08,2.3-1.04,4.61-2.08,6.91-3.12,3.48-1.58,6.96-3.14,10.43-4.74.99-.45,1.97-.93,2.96-1.4-.07,0-.14,0-.21,0-.7.05-1.42-.12-2.13-.21-.08,0-.14-.11-.26-.2.4-.1.9-.08,1.01-.27.36-.6.86-.58,1.4-.44.14-.2.26-.37.37-.53-.17-.12-.31-.23-.39-.28.27-.27.5-.49.73-.72,1.16-.02,2.28.55,3.49.39-.6-.58-1.44-.28-2.11-.56-.67-.28-1.46-.4-1.96-1.05.42-.06.76-.1,1.19-.15-.39-.44-1.19-.49-.91-1.22.09-.01.19-.03.29-.05-.07-.27-.27-.57-.17-.75.31-.61-.34-.74-.54-1.08-.12-.21-.47-.31-.74-.42-.19-.08-.4-.12-.61-.12-.49-.02-.98,0-1.52,0,.25-.49.25-.49.52-.48.54.03,1.1.16,1.6.05.8-.18,1.58-.16,2.38-.11.62.04,1.2.27,1.8.46.93.28,1.96.27,2.96.36.49.04,1,.05,1.5.03.58-.03,1.16-.11,1.76-.17-.28-.7-1.21-.23-1.52-.83,1.05-.35,2.19-.21,3.27-.76-.43-.14-.74-.23-1.05-.33,1.41-.26,2.77.27,4.16-.05-.29-.12-.6-.19-.9-.22-1.3-.16-2.59-.36-3.89-.44-.74-.04-1.37-.36-2.07-.44-1.32-.17-2.64-.33-3.97-.49-.12-.01-.36-.02-.36,0-.09.44-.46.24-.67.23-.58-.02-1.16-.11-1.74-.2-.16-.02-.29-.18-.55-.36.64-.2,1.14-.42,1.65-.5,1.2-.19,2.4-.04,3.49.48.24.11.42.18.67.16.61-.06,1.22-.11,1.83-.16.07,0,.14-.02.22-.04-.05-.24-.1-.46-.14-.65-.72-.13-1.37-.26-1.96-.65l.96-.06s0-.05.01-.08c-.65-.14-1.3-.29-1.95-.43,1.01-.07,2,0,2.98.03.27.01.54-.08.81-.11.3-.03.6-.09.89-.06.85.09,1.7.23,2.55.34.17.02.34-.02.57-.03-.3-.32-.57-.24-.89-.17-.34.07-.72.08-.88-.48.68.03,1.28.06,1.88.09-.39-.16-.78-.16-1.18-.22-1.4-.2-2.8-.41-4.2-.63-.4-.06-.8-.17-1.19-.28-.47-.14-.93-.31-1.4-.43-.36-.09-.74-.12-1.14-.19.21-.54.53-.69,1.01-.66.46.03.93,0,1.4,0-.32-.17-.65-.21-.96-.31-.23-.07-.5-.17-.62-.34-.24-.35-.59-.45-.98-.54-.19-.04-.38-.11-.56-.17,0-.04.02-.08.03-.12.33-.02.66-.03,1.04-.05-.07-.52.3-.51.64-.49.65.04,1.31.1,2.14.16-.92-.43-1.79-.27-2.55-.69-.69-.39-1.52-.55-2.3-.81.07-.13.1-.17.12-.22.02-.07.03-.14.04-.21-.48-.18-1.07.05-1.48-.42q.93-.23.86-.65c-.09,0-.17,0-.27,0h0c-.09,0-.19,0-.29,0h0c-.1,0-.2-.01-.31-.02h0c-.1,0-.21-.02-.32-.03t0,0c-.11,0-.22-.02-.33-.03h0c-.11-.01-.22-.03-.33-.04-.22-.03-.45-.07-.66-.11-.1-.02-.2-.04-.3-.06,0,0,0,0-.01,0-.05,0-.1-.02-.15-.03-.07-.02-.14-.03-.2-.05,0,0,0,0-.01,0-.06-.01-.13-.03-.19-.04-.48-.12-.85-.25-1-.37.31-.07.6-.12.87-.22.23-.09.47-.34.66-.35,0,0,.01,0,.02,0s.02,0,.03,0c.04,0,.07.01.1.02h.02s.04,0,.05,0c.01,0,.02,0,.02,0,.01,0,.02,0,.03-.01,0,0,.01,0,.02-.01,0,0,.02-.01.02-.02,0,0,0,0,.01-.01,0,0,.01-.02.01-.02,0,0,0-.01,0-.02,0,0,0-.02.01-.03,0,0,0-.01,0-.02,0-.01,0-.02,0-.04,0,0,0-.01,0-.02,0-.02,0-.03,0-.05h0s0-.02,0-.03c.01-.11.03-.22.18-.22.1,0,.19-.06.29-.12.02-.01.05-.02.07-.04h0s.05-.02.07-.03c.03,0,.06-.01.09-.01.19,0,.38.02.57.02h.03s.04,0,.06,0c.12,0,.25.01.37.02.02,0,.04,0,.06,0,0,0,.02,0,.02,0,.05,0,.09,0,.14,0,.02,0,.04,0,.07,0,.03,0,.06,0,.09,0,.09,0,.17.01.26.02t0,0c.2.01.41.03.61.04.22.02.44.04.66.07.63.08,1.01-.31,1.6-.44-.06-.04-.12-.08-.18-.11-.02-.01-.04-.02-.06-.03-.04-.02-.08-.04-.12-.06-.02-.01-.05-.02-.08-.03-.04-.02-.07-.03-.11-.05-.03-.01-.06-.02-.08-.03-.04-.01-.07-.02-.11-.04-.03,0-.06-.02-.09-.03-.03-.01-.07-.02-.1-.03-.03-.01-.06-.02-.1-.03-.03,0-.06-.02-.09-.02-.15-.05-.3-.09-.45-.13-.06-.02-.12-.04-.18-.06h0s-.04-.01-.06-.02c-.03-.01-.06-.02-.09-.03-.03-.01-.06-.02-.09-.04,0,0-.01,0-.02,0h0c-.1-.05-.2-.09-.3-.15-.11-.07-.22-.14-.32-.23h0s-.03-.02-.04-.04c-.07-.06-.21-.07-.32-.09-1.18-.19-2.37-.35-3.54-.57-.91-.17-1.8-.43-2.69-.65-.12-.03-.22-.17-.34-.21-.48-.13-.95-.29-1.44-.35-.8-.09-1.56-.25-2.32-.58.14-.07.23-.11.32-.16-.8-.18-1.58-.4-2.38-.53-.85-.14-1.71-.2-2.56-.3-.41-.05-.83-.09-.98-.56-.38.31-.82.41-1.1.16-.46-.43-1.02-.53-1.6-.67.11-.08.2-.11.3-.12.14-.01.28-.02.42,0,2.17.23,4.27.88,6.47.94.66.02,1.32.14,2.16.23-.69-.42-1.43-.24-1.93-.78.5-.12,1.07.4,1.44-.19-.38-.17-.72-.31-1.15-.5.27-.11.41-.17.52-.21-.31-.3-.69-.53-.87-.86-.35-.64-.95-.89-1.59-1.08-.5-.14-1.03-.2-1.55-.31-.17-.04-.33-.13-.68-.27.43-.07.66-.11.88-.14-.22-.14-.44-.14-.65-.19-.24-.06-.56-.08-.68-.23-.4-.48-.98-.44-1.51-.56-.71-.16-1.43-.32-2.14-.48.18-.2.36-.24.53-.3.17-.06.34-.14.69-.29-1.42-.4-2.67-.75-3.93-1.1h0c.02-.07.03-.14.05-.2.11.02.22.04.32.06.8.14,1.6.29,2.4.43-.64-.31-1.31-.48-1.97-.66-.09-.02-.19-.05-.28-.07-.07-.02-.14-.03-.2-.05-.03,0-.06-.02-.09-.03-.07-.02-.14-.04-.2-.06,0,0-.01,0-.02,0-.07-.02-.13-.05-.2-.08-.1-.05-.2-.1-.3-.17,0,0,0,0,0,0-.02-.01-.04-.03-.06-.04-.12-.09-.26-.17-.41-.23-.09-.04-.19-.07-.29-.1h0s-.07-.02-.1-.03c-.02,0-.03,0-.05-.01-.05-.01-.1-.02-.15-.04-.01,0-.02,0-.04,0-.01,0-.02,0-.04,0h0c-.1-.02-.2-.05-.3-.07h0s-.03,0-.04-.01c-.12-.02-.25-.05-.38-.07-.74-.12-1.48-.19-2.21-.35-.77-.17-1.51-.44-2.27-.67.88,0,1.72.12,2.56.27.87.16,1.74.35,2.61.52.06.01.14-.04.22-.07-.07-.06-.13-.1-.19-.15-.08-.06-.16-.12-.23-.18.02-.04.04-.09.06-.13.18.03.36.07.55.1.06.01.11.02.17.03.03,0,.06.01.09.02h0c.13.02.26.05.38.07.01,0,.03,0,.04,0,.02,0,.04,0,.05,0,.04,0,.08.01.12.02,0,0,.01,0,.02,0,0,0,.01,0,.02,0h.06s.06.02.09.03c.23.04.47.08.7.12.18.03.35.06.53.09.04,0,.08.02.12.02.36.07.72.13,1.08.19.12.02.23.04.35.06h.06c-.83-.27-1.67-.54-2.5-.8h0s-.02,0-.03,0c0,0,0,0,0,0-.13-.04-.27-.08-.4-.12-.02,0-.04-.01-.05-.02h0c-.34-.11-.69-.21-1.03-.32h0c-.28-.09-.56-.17-.83-.25-.32-.1-.62-.23-.95-.3-1.32-.27-2.64-.51-3.96-.77,0,0-.01,0-.02,0-.09-.02-.19-.04-.28-.06-.01,0-.03,0-.04,0h0s-.03,0-.05,0c-.04,0-.07-.01-.11-.02-.01,0-.02,0-.04,0,0,0-.01,0-.02,0-.04,0-.09-.02-.14-.02-.02,0-.04,0-.06-.01-.04,0-.07-.01-.11-.02-.52-.1-1.02-.25-1.54-.38.01-.06.03-.12.04-.17.24.02.48.02.72.06.33.05.67.11,1,.16.11.02.21.03.31.05h0c.06.01.12.02.19.03,0,0,.02,0,.02,0,.05,0,.1.02.15.02h.01s.02,0,.04,0c0,0,0,0,0,0,.32.05.64.1.96.15.12.02.25.04.37.06.4.06.81.12,1.22.17.44.06.9.07,1.38,0,.67-.09,1.39-.29,2.1-.04.23.09.51.05.77.07-.91-.26-1.83-.49-2.76-.57-.24-.02-.48-.04-.72-.06-.01,0-.02,0-.03,0-.73-.06-1.46-.14-2.18-.27-.01,0-.02,0-.04,0-.1-.02-.2-.04-.29-.06-.05-.01-.11-.02-.16-.04,0,0-.02,0-.03,0-.01,0-.02,0-.03,0-.06-.02-.12-.03-.18-.05-.15-.04-.31-.08-.46-.14-.1-.03-.22-.05-.32-.07-1.16-.15-2.32-.3-3.47-.47-.14-.02-.27-.15-.4-.23,1.69-.02,3.33.13,4.98.41.1.02.2.04.31.05.06.01.13.02.19.04.06.01.12.02.17.03.02,0,.04,0,.07.01,0,0,0,0,0,0,.1.02.2.04.3.06h0c.2.04.39.08.59.12.01,0,.02,0,.03,0,.18.04.36.08.54.12.03,0,.06.01.08.02.16.04.33.08.49.12.04,0,.07.02.11.03.2.05.39.1.59.15-.1-.09-.19-.17-.29-.25-.03-.02-.06-.05-.09-.07-.07-.06-.14-.11-.21-.16-.03-.02-.06-.04-.09-.07-.09-.06-.19-.13-.28-.19-.01,0-.02-.01-.04-.02-.09-.05-.17-.09-.25-.14-.04-.02-.07-.03-.11-.05-.07-.03-.13-.06-.2-.09-.04-.01-.07-.03-.11-.04-.09-.04-.19-.07-.29-.1-.07-.02-.14-.04-.22-.06-.01,0-.03,0-.04-.01-.06-.01-.12-.02-.18-.04-.09-.02-.19-.03-.28-.05-1.24-.16-2.48-.31-3.72-.47-.32-.04-.73.07-.91-.32.41,0,.81-.03,1.21-.01,1.24.06,2.5.06,3.73.23.14.02.27.04.41.06.11.01.21.03.32.04.06.01.13.02.19.03.05,0,.11.02.16.02.05,0,.09.01.14.02,1.29.2,2.57.43,3.85.66.36.06.73.13,1.09.19.16.03.32.03.48.05,0-.03,0-.07,0-.11-.29-.1-.59-.2-.93-.32.12-.08.17-.14.2-.13.64.17,1.28.36,1.93.51.06.01.12.02.19.03.04,0,.09,0,.13.01.21.02.42.01.62.02.02,0,.05,0,.08-.01,0,0,0,0,.01,0,.03,0,.05-.02.08-.02.03-.01.06-.02.09-.03,0,0,0,0,0,0,.03,0,.05-.01.07,0,.01,0,.03,0,.04.01.01,0,.03.01.04.02,0,0,.01,0,.02.01.01,0,.03.01.04.02.01,0,.03.01.04.02h0c.06.03.12.05.19.07,0,0,0,0,.01,0,.06.02.13.03.19.04,0,0,0,0,.01,0,.13.02.25.03.38.03h.03c.06,0,.12,0,.18,0,.2,0,.41-.02.61-.01h0s.09,0,.13,0h.02s.09.01.14.02c0,0,.02,0,.02,0,.06,0,.11.01.16.02.19.02.38.04.57.06,0,0,0,0,0,0,.38.03.76.05,1.13.08,0-.02,0-.04,0-.06l-1.13-.32c-.6-.17-1.2-.34-1.81-.51-.05-.01-.1-.03-.15-.04-.02,0-.04-.01-.06-.02-.02,0-.04-.01-.06-.02-1.13-.32-2.27-.64-3.4-.96-.04-.04-.08-.09-.12-.13.13-.05.26-.1.39-.15,0-.04-.01-.08-.02-.12-1.05-.2-2.1-.41-3.18-.62,0,0,0,0-.01,0-.03,0-.05-.01-.08-.02h-.05s-.1-.03-.15-.04c-.09-.02-.19-.04-.28-.06.02-.05.04-.09.06-.14.07-.17.14-.3.2-.43.16.02.33.05.49.07l.16.02s.06,0,.09.01c1.87.28,3.73.56,5.58.84-.04-.15-.11-.23-.2-.25-.67-.15-1.35-.32-2.03-.43-.44-.07-.87-.13-1.31-.19-.49-.07-.97-.14-1.46-.2-.01,0-.03,0-.04,0-.09-.01-.17-.02-.26-.04-.24-.03-.48-.07-.72-.1-.9-.14-1.79-.41-2.7-.47-.95-.06-1.88-.14-2.79-.4-.15-.04-.33-.03-.49-.02-.61.02-1.22.06-1.83.06-.19,0-.4-.02-.5-.13-1.24.56-2.47,1.11-3.71,1.66.36.04.73.07,1.1.12M1426.04,221.32c.14.14.25.25.43.43-.61.18-.53-.09-.43-.43M1427.03,236.93c.06-.27.1-.46.16-.75q.33.5-.16.75M1432.33,265.53c.04-.06.09-.12.13-.18-.04.06-.09.12-.13.18M1436.29,224.2c.17-.12.32-.25.5-.35.05-.03.17.02.34.05-.3.16-.52.27-.74.39l-.09-.09ZM1434.4,225.13c.37-.52.57-.6,1.09-.43-.36.14-.72.28-1.09.43M1433.52,264.29s0-.02,0-.02c0,.01,0,.02.01.04,0,0,0,0,0-.01M1429.21,227.39c-.36-.03-.6-.09-.68-.41.33-.11.54,0,.68.41M1448.42,216.02s-.07-.08-.11-.11c.18-.11.36-.22.55-.33.04.04.08.08.12.12-.19.11-.37.22-.56.32M1444.73,220.06c.04.05.08.11.12.16-.19.1-.39.2-.58.3-.04-.04-.07-.08-.11-.12.19-.11.38-.22.58-.34M1468.17,206.49c.35-.15.69-.31,1.04-.46.03.09.07.18.1.27-.36.12-.72.23-1.08.35-.02-.05-.04-.1-.06-.15M1464.91,208.57c-.08-.2-.14-.36-.2-.5.64-.53,1.27-.79,2.11-.58-.65.37-1.23.7-1.9,1.08M1483.92,200.67c.6-.32.95-.5,1.3-.68.02.04.04.08.06.12-.36.15-.73.3-1.35.56M1487.58,198.44c.24-.1.47-.2.71-.3.01.03.03.06.04.08l-.67.35s-.05-.09-.08-.13M1481.89,199.2c1.3-.61,2.61-1.19,3.94-1.75.6-.25,1.12-.76,1.84-.7.04,0,.21-.25.36-.34.09-.06.27-.02.41-.03,0,.07.01.14.02.22-.85.4-1.69.8-2.54,1.2-.27.12-.65.24-.77.39-.51.67-1.15.67-1.85.65-.33.26-.65.53-1.01.77-.23.16-.65.41-.76.38-.65-.2-.86.33-1.37.73,0-.26-.07-.45,0-.5.56-.36,1.12-.72,1.73-1.01M1481.03,198.92c.74-.61,4.3-2.21,5.39-2.35-.56.27-1.12.54-1.68.81-.57.28-1.14.57-1.72.83-.59.27-1.16.67-2,.7M1490.23,195.43q-.32.62-1.43.76c.23-.64,1.08-.33,1.43-.76M1513.72,184.62c-.25.28-.28.52-.96.69-1.07.27-2.15.8-2.87,1.61-.11-.31-.5-.07-.75.04-.89.4-1.75.85-2.63,1.26-.53.25-1.08.48-1.62.71-.97.43-1.95.85-2.99,1.31,0-.34.28-.58.74-.79.3-.14.59-.3.9-.42.74-.3,1.23-.71,1.52-1.25.06-.11.21-.24.35-.3.73-.35,1.48-.67,2.29-.9-.72.38-1.43.75-2.14,1.12,2.81-.78,5.47-1.95,8.16-3.08M1514.58,184.56c.32-.33.54-.56.81-.85q.2.42-.81.85M1502.14,191.38c.12-.11.21-.25.35-.33.85-.47,1.71-.92,2.56-1.39.11-.06.2-.19.26-.28.25-.4.58-.7,1.2-.82.22-.04.47-.2.7-.32.54-.26.99-.66,1.67-.58.16.02.65-.44.99-.7,1.06.04,2.05-.36,2.95-1.01.35-.25.62-.38,1.03-.14-4.03,1.72-7.59,4.05-11.72,5.57M1498.47,193.2c-.06-.02-.18-.02-.24-.07-.06-.05-.07-.14-.12-.24.68-.38,1.37-.76,2.05-1.14.04.03.07.06.11.09-.59.44-1.18.89-1.8,1.36M1500.19,192.27c-.02.1,0,.17-.03.19-.26.16-.49.52-.9.25.34-.16.62-.3.94-.44M1498.01,192.2c-.12-.59.65-.77,1.05-1.01.43-.26.99-.4,1.47-.59-.07.56-.35.74-2.52,1.6M1494.36,194.56c-.58.31-1.17.61-1.92,1.01.88-.82,2.13-1.6,4.48-1.88-.32.22-.5.36-.71.47-.43.23-.88.41-1.29.66-.66.4-1.28.83-2.04,1.32-.04-.52.49-.64.78-.84.28-.2.57-.39.86-.58-.06-.05-.11-.1-.16-.15M1494.46,192.41c.62-.24,1.05-.41,1.48-.57.02.07.04.14.06.2-.41.3-.83.59-1.54.36M1522.02,180.99c-.03-.06-.06-.12-.1-.19,1.1-.43,2.06-1.14,3.22-1.45l.08.15c-1.07.49-2.14.99-3.21,1.48M1520.86,181.32c.02.06.04.11.07.17-.34.15-.67.3-1.01.45-.02-.03-.04-.06-.06-.09.33-.17.67-.35,1-.52M1548.44,169.02c.09-.14.14-.25.24-.34.03-.03.27-.02.26,0-.01.1-.05.21-.12.31-.01.02-.2.02-.38.04M1567.43,158.4s0,.1-.01.15c-.45.21-.9.43-1.35.64-.01-.02-.03-.04-.04-.06.46-.24.93-.49,1.4-.73M1562.48,162.01c.69-.96,1.15-1.23,3.32-1.96-.31.28-.47.44-.66.59-.29.23-.61.44-.91.66-.09.06-.24.16-.28.15-.54-.19-.94.28-1.46.56M1430.87,219.44c.06,0,.11.07.19.14-.09.06-.17.14-.21.12-.07-.03-.12-.11-.18-.17.06-.03.13-.09.19-.08M1428.63,220.94c-.18,0-.36,0-.59,0,.22-.34.42-.23.59,0M1445.5,214.47c.84-.73,1.9-1.17,2.97-1.58.03.06.06.11.09.17-1.02.47-2.04.94-3.06,1.41M1480.34,200.92c1.06-.46,2.19-.85,3.15-1.42,1.65-.98,3.45-1.6,5.16-2.42.11-.05.24-.08.48-.15-.26.43-.62.75-1.11.99-1.26.64-2.5,1.23-3.92,1.56-.76.18-1.56.77-2.31,1.21-.67.39-1.24.91-2.08,1.05-.11.02-.31.08-.35.14-.4.59-1.28.68-1.82,1.11.52-.99,1.61-1.55,2.78-2.06M1481.16,201.95c-1.34.68-2.53,1.59-4.31,2.06,1.45-1.02,2.98-1.38,4.31-2.06M1471.62,203.86c.81-.23,1.61-.67,2.45-.95-1.59.69-2.95,1.83-5.03,2.2.95-.63,1.68-1,2.59-1.25M1462,208.13c.67-.42,1.27-.85,1.93-1.17.41-.21.95-.21,1.38-.4.9-.38,1.78-.81,2.67-1.22.38-.18.77-.44,1.08-.12-.39.24-.78.49-1.17.73.03.04.06.09.08.14.4-.2.8-.41,1.21-.6.42-.19.85-.34,1.45-.47-.09.07-.16.18-.26.22-1.74.77-3.48,1.53-5.21,2.31-.66.3-1.47.49-1.77,1.15-.05.1-.42.2-.62.33-.21.14-.39.3-.57.45,0-.19.01-.38.02-.58-.21.03-.42.06-.8.11.4-.23.64-.38.89-.52-.11-.12-.2-.22-.33-.35M1457.43,210.2c1.04-.49,2.09-.96,3.14-1.43.18-.08.39-.1.63-.07-.7.36-1.4.73-2.16,1.13.61.38,1.04-.28,1.71-.43-.3.36-.55.65-.91,1.08.88-.36,1.62-.66,2.35-.96,0,0,0,0,0,0,1.38-.03,2.66-.86,4.17-1.27-.48.44-.99.56-1.45.76,0,0-.02,0-.03.01-.33.15-.83.31-.95.5-.51.78-1.45,1.12-2.27,1.25-.25.04-.49.1-.72.17-.81.26-1.54.67-2.33.92-.12.04-.24.12-.35.15-.29.06-.67.18-.85.11-.33-.12.07-.36.23-.58.3-.42.48-.85.77-1.39-.57.25-.93.4-1.28.56-.04-.03-.08-.06-.12-.09.14-.14.24-.32.41-.4M1453.85,213.5c-.48.23-.97.47-1.45.7.36-.43.79-.75,1.45-.7M1451.57,213.32c-.4.24-.66.4-1.02.61q.13-.52,1.02-.61M1447.65,214.74c.72-.36,1.53-.58,2.35-.77-1.37.82-2.8,1.5-4.32,2.07.65-.44,1.26-.95,1.97-1.3M1440.04,218.55s.04.07.05.1c-.2.09-.4.18-.6.27-.02-.04-.04-.08-.05-.12.2-.08.4-.17.6-.25M1429.58,224.32c.21-.17.41-.34.62-.51,0,0,.02-.01.02-.02,0,0,.02,0,.02,0,.34-.12.8.21,1.06-.36.03-.07.23-.2.28-.19.83.11,1.56-.72,2.37-.71h.02c.09,0,.25-.07.33-.14.12-.08.23-.17.35-.25,1.01-.67,2.11-1.17,3.29-1.62,1.46-.56,2.89-1.27,4.33-1.91.07-.03.14-.06.2-.09,1.53-.68,3.05-1.37,4.58-2.05.05-.02.13.01.27.03-.91.67-2.24.85-2.95,1.75-.54-.09-1.06.14-1.57.49-.47.33-.96.64-1.48.93-.06.03-.12.07-.18.12-.22.15-.48.33-.66.07,0,0-.01-.01-.02-.02,0-.01-.37.11-.52.21-.1.07-.18.14-.27.23-.09.08-.17.17-.28.27-.04-.02-.09-.03-.13-.04-.63-.2-1.03-.01-1.26.51-.04.08-.12.18-.21.27-.06.05-.12.1-.18.13-.75.36-1.52.69-2.35,1.06,0-.02.01-.04.02-.06.04-.12.07-.21.12-.34-.6.17-1.08.44-1.52.77-.14.11-.28.21-.41.33-.27.22-.54.46-.86.64-.95.52-1.93,1-2.89,1.5-.04-.04-.08-.07-.12-.11.17-.16.34-.32.51-.48-.02,0-.04,0-.06,0-.33,0-.65.02-1.01.03.19-.15.36-.3.53-.43M1423.87,226.83c-.33.05-.4,0-.54-.51.49-.12.98-.24,1.53-.37.04.22.1.48.15.72-.4.06-.77.1-1.14.16M1426.14,227s.12-.18.19-.27c.16.14.32.28.48.43-.06.07-.13.15-.19.22-.16-.12-.33-.23-.48-.38M1427.33,227.08c.07-.26.14-.49.22-.75.27-.04.51-.07.78-.11.07.27.12.51.18.75-.36.04-.73.07-1.17.11M1426.9,231.66c-.32,0-.58,0-.92,0,.02-.24.03-.44.07-.63.04-.17.12-.33.18-.48.48-.14.93-.28,1.45-.43.13.36.25.69.4,1.09-.57-.04-1.17-.31-1.19.44M1432.64,265.09h0s.03-.04.04-.06c-.01.02-.03.04-.04.06M1439.59,272.77c.47-.25,1.03-.54,1.6-.83.02.05.05.1.08.15-.58.24-1.16.48-1.67.69M1449.39,268.72c-.09.07-.25.12-.38.17-.02-.02-.05-.05-.08-.08l.57-.44s.08.02.12.03c-.08.11-.14.22-.25.31M1451.57,267.47c-.49.18-.94.47-1.47.75.03-.19.06-.33.09-.49.92-.35,1.84-.69,2.94-1.11-.5.57-1.04.65-1.56.85M1577.65,156.8h0c-.18-.02-.36-.05-.53-.08.18.03.35.06.53.08"/>
    <path class="cls-4" d="M1428.82,219.63s-.04.02-.05.02c0,0,0,0,.01.01.01-.01.03-.02.04-.04"/>
    <path class="cls-4" d="M1573.9,154.37c-.08-.15-.17-.28-.3-.32-.26-.07-.55-.07-.81-.14-.16-.04-.32-.08-.48-.11-.17.08-.35.16-.52.24.7.07,1.4.26,2.11.33"/>
    <path class="cls-2" d="M1453.81,274.66c-.11.04-.23.07-.34.11.07.02.13.05.2.07.03-.04.07-.09.1-.14.01-.02.02-.03.04-.05"/>
    <path class="cls-2" d="M1462.7,271.93c.55-.37,1.08.15,1.68.09-.07-.29-.12-.53-.17-.74-.03,0-.06-.02-.1-.03-.63.07-.98.42-1.42.68h0"/>
    <path class="cls-2" d="M1587.85,206.28c-2.3,1.04-4.61,2.08-6.91,3.12-3,1.36-6.01,2.72-9.01,4.08-1.75.79-3.5,1.59-5.25,2.39-2.77,1.27-5.54,2.53-8.31,3.81-1.51.7-3,1.42-4.51,2.12-2.56,1.18-5.13,2.34-7.7,3.52-2.72,1.25-5.42,2.52-8.15,3.75-4.57,2.08-9.16,4.11-13.72,6.2-2.85,1.3-5.65,2.69-8.49,4.01-4.45,2.07-8.91,4.13-13.38,6.18-2.84,1.3-5.7,2.56-8.55,3.83-.66.3-1.33.59-1.99.9-2.29,1.06-4.57,2.13-6.86,3.19-2.3,1.06-4.61,2.08-6.9,3.16-3.11,1.46-6.19,2.96-9.28,4.45-3.19,1.55-6.37,3.13-9.57,4.66-1.87.9-3.56,2.08-5.69,2.61-.91.23-1.84.86-2.73,1.35-.99.55-1.92,1.2-2.93,1.7-2.1,1.03-4.06,2.22-6.13,3.27-.86.44-1.78.81-2.61,1.28-.75.42-1.49.85-2.22,1.28.04-.02.07-.03.11-.04-.48.43-.48.97-.56,1.52.8-.4,1.4-.74,1.37-1.37.99-.46,1.94-.85,2.82-1.32,1-.53,1.93-1.16,2.92-1.71.87-.48,1.78-.95,2.76-.85.04-.19.09-.38.13-.54.7-.34,1.34-.65,1.94-.94.21.3.38.53.55.77.7-.28,1.37-.56,2.02-.83.02,0,.04-.02.06-.03.22-.09.43-.17.64-.26.41-.17.83-.34,1.24-.51.12-.05.22-.09.31-.13.73-.3.74-.38.69-1.04,0-.1,0-.21,0-.32.1-.01.2-.03.3-.04.18.11.36.22.57.36.71-.43,1.38-.83,2.07-1.24.1-.21-.3-.51.51-.66.03.15.06.32.08.44.68-.25,1.29-.44,1.87-.7,1.95-.88,3.89-1.78,5.83-2.68,3.65-1.71,7.29-3.42,10.94-5.13.38-.17.79-.28,1.19-.41.93-.3,1.81-.57,2.65-1.16.69-.49,1.5-1.08,2.49-.99.14.01.39-.13.59-.22,1.61-.7,3.21-1.4,4.81-2.12,3.21-1.44,6.43-2.87,9.63-4.33,2.01-.92,4.02-1.83,5.99-2.85,2.06-1.06,4.32-1.83,6.47-2.79.72-.32,1.43-.64,2.14-.96,2.1-.96,4.18-1.93,6.28-2.89.41-.19.83-.34,1.25-.51-.82.59-1.67,1.06-2.56,1.48-1.77.85-3.56,1.67-5.34,2.5-.54.25-1.12.46-1.64.75-1.51.84-3.1,1.53-4.71,2.17-.83.33-1.68.61-2.5.97-1.12.51-2.21,1.09-3.33,1.61-.61.28-1.22.56-1.83.83-1.96.89-3.92,1.77-5.88,2.66-1.74.79-3.48,1.57-5.18,2.42-.65.32-1.43.56-1.97,1.04-.09.08-.17.16-.24.25.19.02.34.04.48.05-.11.12.04.36-.4.33-.08,0-.33.16-.39.26-.19.3-.44.39-.78.35-.14-.02-.3-.07-.41-.03-1.05.43-2.1.86-3.13,1.32-1.17.52-2.24,1.14-3.21,1.9-.86.67-1.99,1.01-2.98,1.53-.03.02-.12-.03-.33-.09.61-.29,1.12-.54,1.63-.78l-.12-.21c-1.63.93-3.47,1.49-5.28,2.56.39-.02.53-.03.81-.05-1.56.77-2.87,1.81-4.75,1.82.01.22.02.39.02.4-.92.29-1.65.53-2.36.75-.01.26-.02.41-.02.56-1.22.24-2.32.61-3.35,1.16-.15.3-.29.58-.4.82-.42.1-.84.14-1.19.3-.68.31-1.33.68-1.94,1-.26-.08-.44-.14-.63-.2.19.5.14.7-.36,1.02-.3.19-1.35.24-1.7.05-.33.27-.88.36-.98.85-.04.18-.8.47-1.05.61-.78.2-1.53.24-2.02.53-1.47.88-3.3,1.29-4.55,2.46-.16.15-.55.21-.82.34-.69.33-1.42.63-2.06,1.02-.4.25-.57.72-.97.95-.58.33-1.15.67-1.72,1,.04.23.1.45.1.69.02,0,.04,0,.05,0,.13-.06.25-.13.39-.2-.01.06-.02.11-.04.16.31-.03.6-.06.9-.09,0-.21,0-.41,0-.57-.2-.09-.35-.16-.58-.26.44-.46.96-.33,1.4-.45.06.13.13.24.2.35.08-.02.15-.03.23-.04,0,0,0,.14-.01.15-.04.01-.08.02-.12.04.3.38.63.52.86.35,0-.22,0-.44,0-.64.53-.05,1.01-.09,1.58-.14-.65-.49-1.37-.28-2.09-.4.39-.44.77-.39,1.19-.35.25.03.72,0,.75-.1.13-.39.45-.3.71-.38.59-.2,1.35-.07,1.77-.54.36-.4.77-.46,1.22-.53.68-.12,1.37-.21,2.05-.3.16-.02.33,0,.5,0,.61-.02,1.23-.03,1.85-.07.07,0,.13-.14.3-.32-.43-.12-.76-.23-1.09-.28-.13-.02-.26-.02-.39-.03,0,0,0,0,0,0-.37.23-.75.41-1.21.27.06-.1.12-.2.18-.29.06-.09.11-.18.16-.26,0-.01.01-.02.02-.03-.02-.09-.01-.2.02-.34.3-.02.6.02.83-.08.19-.09.29-.35.43-.53.07.07.14.14.22.22.02,0,.03,0,.04,0,.05,0,.1,0,.13-.01.07-.04.12-.09.18-.14.13-.12.24-.27.38-.39.08-.07.29-.17.33-.15.13.06.24.08.34.09.26.01.46-.11.64-.26.19-.17.37-.37.58-.48.29-.16.59-.32.88-.48.41-.22.82-.43,1.24-.62.59-.27,1.15-.48,1.4-.98.05-.11.29-.23.46-.31.86-.43,1.73-.86,2.59-1.29.22-.11.45-.2.68-.31,1.04-.48,2.08-.96,3.11-1.45.02.04.29.57.32.62-.12.05-.23.12-.34.19-.48.33-.87.78-1.59.83-.38.38-.85.59-1.34.76-.4.15-.81.27-1.19.45-.85.4-1.62.92-2.44,1.36-.05.03-.1.05-.15.08-.41.22-.83.44-1.24.65-.1.05-.2.11-.3.16-.66.35-1.32.69-1.99,1.04.12.24.2.4.28.56.58.01.99-.27,1.28-.68.18.07.29.11.46.18.21-.19.43-.39.68-.61.09.08.17.15.25.22.07.06.14.12.22.19-.31.14-.6.27-.88.41-.33.16-.65.34-.96.57-.23.16-.53.27-.87.36-.1.02-.21.05-.32.07-.15.44-.39.82-.85,1.08-.48.28-.91.62-1.4.95.84.43,1.09-.43,1.65-.57.04-.01.08-.02.12-.02.07.37.19.74.18,1.11-.02.32.05.55.31.75.18.14.32.32.5.51.11-.22.19-.41.31-.58.42-.59,1-1.08,1.29-1.77.05-.12.25-.23.4-.24.7-.07,1.41-.11,2.28-.17-.77.43-1.4.78-2.03,1.13.29.16.53.23.76.19.14-.02.27-.04.41-.06.12-.02.23-.03.35-.04.01,0,.02,0,.04,0,.02,0,.03,0,.05,0,.09-.01.17-.02.26-.03.04,0,.09,0,.13,0,.24-.02.47-.04.71-.05.51-.02,1.01-.04,1.52-.07.17,0,.33-.02.5-.03.28-.02.57-.03.82-.14,1.06-.44,2.17-.36,3.28-.34.36,0,.73,0,1.08-.07.22-.05.4-.25.61-.36.21-.11.43.28.67,0,.06-.07.27-.07.37-.03.74.3,1.17.34,2.02.13-.69.09-1.27-.13-1.85-.44-.33-.18-.72.04-1.05,0-1.09-.11-2.17-.15-3.27-.12-.47.01-1.03.19-1.43-.3.37-.07.75-.05,1.11-.1.14-.02.25-.22.43-.41,1-.18,2.15-.39,3.32-.6.01-.25.02-.45.04-.74-.4-.04-.75-.06-1.1-.11-.48-.07-1-.33-1.44-.24h-.01c-.15.04-.27.04-.36.01-.04-.01-.07-.03-.1-.04,0,0-.01,0-.02-.01-.02-.01-.04-.03-.06-.05,0,0-.01-.01-.02-.02-.05-.05-.08-.11-.12-.18h0c-.04-.09-.08-.19-.13-.27,0,0,0,0,0-.01-.01-.02-.02-.03-.03-.05,0,0,0-.01-.01-.02-.01-.01-.02-.03-.03-.04,0,0-.01-.01-.02-.02-.01-.01-.03-.02-.04-.03,0,0-.01-.01-.02-.01-.02-.01-.05-.02-.07-.03-.06-.02-.03-.25-.1-.28-.12-.05-.38-.07-.4-.02-.36.73-.97.62-1.6.44-.3-.09-.61-.19-.85-.26.06-.17.15-.31.25-.44-.38.24-.75.47-1.12.56-.77.18-1.11.69-1.74.93-.61.24-1.19.56-1.78.84-.03.01-.07,0-.15-.01,0-.02,0-.04,0-.06.06-.3.56-.32.75-.51.19-.19.33-.39.55-.68.04-.06.09-.11.14-.17.63-.34,1.41-.58,2.2-.89.45-.17.91-.36,1.35-.61.1-.06.21-.12.31-.18.31-.19.61-.4.91-.59,0,0-.01,0-.02,0-.1-.03-.2-.06-.3-.09-.1-.03-.21-.06-.33-.1.75-.16,1.3-.36,1.85-.38h.09c.21-.06.43-.09.82-.17.03,0,.07-.01.1-.02-.1.07-.2.15-.29.22.52.04,1.04.05,1.52-.27.07-.05.22-.01.33,0,.33.06.67.08.97.2.45.19.85.18,1.25.05.01,0,.02,0,.03-.01.05-.02.09-.03.14-.06.02,0,.05-.02.07-.03.04-.02.07-.03.11-.05.06-.03.12-.07.19-.1.2-.12.44-.2.64-.29.03.02.05.04.08.06,0,0,0,0,.01,0,0,0,0,0,.01.01.06.04.12.09.19.12.14.09.28.14.42.18h0c.07.02.14.03.2.03h.02c.07,0,.14,0,.21,0h0c.07-.01.14-.02.21-.04,0,0,0,0,.01,0,.07-.02.14-.04.2-.07.01,0,.02,0,.03-.01.07-.03.14-.07.2-.11.01,0,.02-.01.03-.02.07-.04.14-.09.22-.15-.29-.14-.54-.36-.8-.37-.05,0-.1,0-.15,0h-.11c-.09,0-.18,0-.27,0-.12,0-.24,0-.36.01-.36.01-.71.04-1.07.08-.78.08-1.5-.06-2.29-.3.56-.49,1.27.12,1.82-.47-.73-.32-1.48.04-2.24-.16.29-.26.44-.5.86-.34.57.23,1.12-.08,1.68-.14.66-.07,1.33-.02,2.01-.03.06.18-.08.41.05.62,0,0,0,.01.01.02,0,.01.02.03.03.04,0,0,.01.01.02.02.01.01.03.03.05.04,0,0,.01.01.02.02.02.02.05.04.09.06-.01-.16-.02-.29-.03-.42,0-.13-.02-.25-.02-.38.21-.08.4-.15.65-.25-.15-.07-.24-.12-.33-.16.43-.49.98-.33,1.53-.36h.02c.06,0,.13-.01.19-.02-.06.11-.1.2-.15.3-.02.04-.04.08-.06.12,0,.01-.01.02-.02.03-.07.14-.14.28-.22.43-.02.02-.05.03-.07.04,0,0,0,0,0,0-.03.01-.06.02-.1.03-.06.01-.12.02-.18.03-.19.03-.36.09-.38.37,0,.01,0,.02,0,.03.33.17.62.27,1.07.14.76-.22,1.57-.28,2.36-.38.73-.1,1.38-.3,1.79-1.03-.3-.06-.54-.11-.81-.16.46-.45.81-.15,1.17.03.27-.17.53-.32.76-.51.3-.23.62-.14.95-.11.35.03.57.1.56.59-.34-.02-.65-.09-.94-.05-.3.04-.74-.07-.86.43.56.07,1.23-.11,1.33.61.43-.05.82-.09,1.19-.15.88-.13,1.76-.23,2.62-.43.47-.11.91-.07,1.37-.06.71.02,1.47.23,2.11-.24-.02-.21-.04-.41-.06-.61-.8.18-1.6.36-2.47.56-.1-.19-.2-.39-.31-.61.21-.19.4-.36.62-.56.19.19.33.33.5.5.36-.21.69-.41,1.03-.6-.01-.06-.02-.12-.04-.18-.28-.06-.56-.17-.85-.17-.41,0-.83.06-1.24.09-.3.02-.63.1-.9-.22.18-.04.28-.09.39-.09,1.39.06,2.72-.41,4.12-.33.92.05,1.87-.03,2.77-.19.57-.1,1.08.11,1.62.02.82-.13,1.65-.2,2.48-.26.42-.04.85-.01,1.28-.02,0,.05,0,.1,0,.15-.27.03-.53.04-.79.09-.26.06-.51.15-.77.23.55.95,1.15,1.03,2.56.64-.24-.65-.88-.24-1.38-.49.24-.09.43-.21.62-.23.2-.03.41.03.72.06-.09-.21-.14-.33-.2-.48.43-.1.87-.2,1.4-.33-.32-.18-.59-.51-.61-.62-.82.13-1.63.28-2.45.38-.69.07-1.4.02-2.08.13-.91.14-1.81.24-2.73.1-.47-.07-.52-.18-.24-.57.05-.07.08-.17.14-.29-.59-.14-1.08-.12-1.53.21.11.34.2.55.65.46.12-.02.33.36.63.71-.87-.11-1.64-.3-2.37.14-.22-.36-.51-.46-.91-.32-.17.06-.4.11-.41-.24.43-.09.87-.17,1.31-.26v-.14c-.28-.05-.57-.1-.88-.16.16-.23.28-.4.39-.54.5-.06.98-.18,1.44-.15,2.21.12,4.34-.51,6.53-.56,1.26-.03,2.51-.26,3.77-.34,1.29-.08,2.59-.09,3.88-.13.72-.03,1.44-.09,2.16-.1,1.08-.02,2.16-.02,3.24-.04.94,0,1.88-.01,2.78-.02.11-.24.18-.4.2-.46.28.11.5.27.71.26.57-.03,1.17,0,1.65-.38-.18-.17-.36-.33-.53-.49.68,0,1.37-.01,2.05-.02.01.06.03.12.05.19-.24.11-.48.21-.84.38.43.12.77.21,1.23.34.02-.35.04-.61.06-.88.1-.02.24-.06.39-.1,0-.05,0-.11,0-.16-.99-.07-2.09.37-2.92-.54.42.02.82.06,1.22.07.27,0,.55.03.81-.04.37-.1.93-.17,1.37-.2.65-.03,1.3-.13,1.95-.19.71-.07,1.41-.11,2.14-.01.7.1,1.44.06,2.14-.06.36-.06.62-.22.99.02.33.22.73.19.86-.18.3,0,.54,0,.78,0,.3,0,.61-.05.91,0,1.44.2,2.88.36,4.32,0,.11-.02.23-.05.33-.03.65.17,1.29.35,1.93.53-.04-.07-.07-.14-.11-.21.14-.05.29-.14.44-.14.77,0,1.57.15,2.31.01.61-.12,1.2-.23,1.83-.21.83.03,1.66,0,2.49.01.75.02,1.49.11,2.24.12,1.33.02,2.66,0,3.98,0,.07,0,.13.07.27.15-.36.13-.67.24-1.02.37,0,.04-.04.16-.06.25-.45,0-.86,0-1.27,0-.47,0-.93,0-1.4,0-.29,0-.59.04-.88,0-.84-.11-1.71.19-2.53-.2-.16-.08-.37-.06-.56-.09-.01.4-.36.3-.53.24-.69-.22-1.27.19-1.91.25.15.08.31.08.44.14.4.2,1.07-.23,1.26.49.01.04.47.04.69-.02.39-.12.72-.25,1.19-.16.33.07.73-.02,1.12.07.36.09.82.15,1.12,0,.39-.2.77-.27,1.18-.27.89.01,1.78.05,2.67.08.02,0,.05.07.07.1-.22.06-.43.11-.72.19.2.12.32.19.43.25-.16.11-.3.22-.45.32,2.27.48,4.54.18,6.8.35-.14-.09-.28-.19-.58-.39.6-.14,1.04-.25,1.38-.33-1.33-.12-2.75-.25-4.16-.37,0-.02,0-.04,0-.06,3.29.07,6.57.13,9.86.2,0,.05,0,.1,0,.15-.67.05-1.35.09-2.02.14.17.17.52.27.51.31-.12.79.56.57.91.59,1.11.08,2.22.1,3.32.12.15,0,.33-.07.44-.17.25-.24.47-.52.8-.9-1.02,0-1.9.01-2.78.02,0-.03,0-.07,0-.1.58-.13,1.16-.26,1.74-.39,0-.04,0-.07-.01-.11-.2-.03-.4-.05-.66-.09.25-.1.43-.18.62-.26,0-.06-.01-.11-.02-.17-.83-.1-1.65-.36-2.67-.27.32.25.5.39.77.6-.38-.02-.65-.03-.9-.04-.09-.18-.15-.32-.22-.47-.53.4-1.07.56-1.72.51-.66-.05-1.34.05-1.99-.03-.62-.07-1.36.07-1.79-.61-.1-.15-.43-.23-.66-.23-.5-.02-1,.04-1.5.04-1.08,0-2.16-.03-3.24-.05v-.15c.9.14,1.75-.47,2.66-.08,1.34-.19,2.64.24,3.97.28.66.02,1.23.12,1.43-.53.23.1.41.25.59.25.26,0,.32-.22.3-.45-.41-.17-.9-.02-1.27-.29.12-.13.2-.23.34-.38-.33-.04-.57-.07-.72-.09,0-.26,0-.42,0-.64.25.06.46.11.67.15.29.07.59.19.88.19.94,0,1.87-.05,2.81-.04,1.5.01,3.01.06,4.51.1,1.49.04,2.96.35,4.45.36.08,0,.16.07.23.11-.34.17-.66.24-.98.24-.63,0-1.27-.06-1.9-.08-1.75-.05-3.5-.09-5.25-.15-.45-.01-.94-.28-1.31.2-.03.04-.18.05-.2.02-.32-.37-.62.09-.92.02-.35-.09-.68-.24-1.03-.3-.27-.05-.55,0-.9,0,.41.47.96.19,1.39.39-.1.16-.2.3-.35.54.67.11,1.27.27,1.86.29.72.03,1.44-.07,2.16-.08.44,0,.88.04,1.32.08.54.05,1.09.14,1.64.16.64.02,1.27,0,1.91,0-.02.05-.04.09-.06.14.41.25.82.51,1.16.71.32-.16.56-.29.77-.4-.09-.07-.22-.16-.44-.32.36-.04.58-.09.8-.09,1.21.03,2.42.08,3.64.12.56.02,1.12-.01,1.66.09.52.1,1,.34,1.49.53.09.04.14.16.21.25-.47.05-.86-.12-1.25-.09-1.16.09-2.32-.04-3.47.17-.13.02-.37-.07-.42-.18-.24-.45-.66-.13-.98-.2-.14-.04-.37.28-.56.43.02.06.05.11.07.17.32,0,.64.02.96.02.39,0,.78-.04,1.17-.03.74.03,1.49.08,2.23.14,1.07.09,2.16.02,3.21.35.03.01.06.03.06.03-.13.08-.25.16-.51.32.51.2.89.44,1.3.49.74.09,1.49.08,2.23.07.6,0,1.19-.07,1.91-.12-.22-.31-.34-.48-.48-.67-.11.09-.18.14-.23.19-.05.06-.08.12-.11.17-.6-.61-1.53.07-2.13-.51,1.2-.43,2.37.05,3.56-.05.05.32.09.59.14.9.07.02.17.08.27.08.66.01,1.32,0,1.98.02.32.01.65.08.96.15.18.04.34.15.54.24-.07-.56.38-.58.67-.55,1.06.09,1.97-.28,2.91-.67-.8-.04-1.65.51-2.43-.29.9-.26,1.81,0,2.64-.21.87-.21,1.78.08,2.63-.29-.62-.09-1.23-.11-1.85-.07-.63.04-1.26.22-1.87-.12-.07-.04-.2,0-.3,0-.24.03-.48.13-.71.1-1.15-.17-2.29-.37-3.46-.18-.12.02-.25-.06-.46-.11.36-.22.65-.4.93-.56.18.1.33.26.46.24.62-.08,1.26.12,1.86-.17.14-.07.39-.05.54.02.91.41,1.8.47,2.7-.03.14-.08.31-.12.47-.12.91-.03,1.83-.05,2.74-.07.14,0,.31.02.41-.05.38-.25.77-.12.99.1.27.27.6.25.83.2.55-.12,1.17.03,1.66-.38.1-.08.33-.08.48-.05.4.09.69-.06.93-.33.4.12.79.15,1.11-.18l-1.11.17s0,0,.01-.01c-.78-.31-1.59,0-2.38-.05-.13-.01-.25,0-.4-.1.18-.04.35-.09.53-.1.99-.06,1.98-.12,2.97-.15.13,0,.26.15.38.23.38-.36.86-.31,1.33-.3.92.01,1.8-.22,2.68-.44-.39-.06-.77-.05-1.15-.05-.29,0-.63.12-.74-.31-.02-.07-.22-.12-.34-.13-.27-.02-.55-.05-.81,0-.26.05-.6-.12-.82.19.49.04.94.08,1.38.12,0,.05,0,.1,0,.15-.35.02-.7.05-1.05.07-.19,0-.38-.02-.57,0-1.05.08-2.1.22-3.15.25-2.28.06-4.57.08-6.85.09-.43,0-.67.12-.77.51-.01.04-.19.05-.29.08-.02-.21-.04-.38-.07-.61-.81-.07-1.58-.13-2.35-.2.28-.08.56-.08.84-.09,1.05-.02,2.1-.02,3.15-.06.55-.02,1.15.02,1.62-.18.53-.23,1.03-.26,1.53-.15.64.14,1.11-.07,1.63-.43-.6-.65-1.59-.63-2.22-1.31,1.88-.12,3.63-.22,5.39-.33v-.16c-1-.26-2.06-.02-3.18-.24.46-.4.91-.16,1.31-.23.44-.08.89-.14,1.33-.2,0-.03-.01-.05-.02-.08-.34-.07-.69-.15-1.03-.22,2.02-.36,4.05,0,6.02-.27.03-.21.05-.35.07-.54.22.07.48.08.52.17.24.52.69.39,1.11.38.52-.01,1.05,0,1.57-.04.16-.01.3-.14.46-.21-.01-.03-.02-.07-.04-.1-.56-.03-1.13-.06-1.7-.09.18-.17.38-.2.58-.23.21-.03.42-.05.64-.07-.21-.18-.43-.24-.66-.27-.22-.02-.45-.01-.67-.01.5-.47,1.02-.78,1.54-1.09.04-.03.11-.03.16-.04.14-.01.31-.07.41-.01.35.22.63.16.97-.04.2-.12.49-.11.9-.19-.23.18-.32.25-.42.33.77-.04,1.05-.22,1.37-.9-1.66.21-3.31.56-4.98.15.52-.17,1.05-.3,1.59-.38.57-.08,1.16-.09,1.73-.15.47-.06,1.04-.04,1.37-.28.48-.35.95-.31,1.46-.32.26,0,.52-.08.78-.12-.01-.06-.02-.11-.04-.17-.33.03-.67.06-1.01.08.62-.24,1.11-.62,1.67-1.16-.55-.04-.95-.06-1.34-.09-.07.71-.07.73-.69.78-.95.08-1.91.09-2.82.42-.09.03-.22,0-.32-.04-.31-.1-.61-.21-.99-.34.98-.61,1.99-.87,3.1-1.06.12.44.45.5.82.31.83-.44,1.74-.4,2.64-.48.85-.07,1.68-.21,2.52-.33.01,0,.01-.08.02-.12-.68-.06-1.36-.12-2.08-.19.01-.33.14-.62.47-.48.61.26.94-.41,1.47-.29.12-.42.54-.36.85-.5.48-.23,1.06-.35,1.25-.96.06-.2.25-.43.44-.53.79-.38,1.59-.73,2.41-1.04.49-.19,1.02-.28,1.54-.42,0-.06-.02-.12-.03-.18-.4,0-.8-.03-1.19.02-.46.06-.92.17-1.37.29-.42.11-.8.15-1.19-.36.58-.06,1.06-.18,1.53-.16.86.03,1.63-.09,2.14-.85-.33-.07-.84.24-.87-.38.35-.12.67-.31,1-.33.66-.04,1.32.02,1.98,0,.48-.01.97-.03,1.44-.14.39-.09.74-.32,1.12-.46.28-.11.6-.17.77-.54-.19,0-.28,0-.36,0-1.42.26-2.84.55-4.26.78-.56.09-1.15.06-1.73.08-.52.02-1.14-.1-1.55.11-.62.32-1.23.2-1.84.28-.71.1-1.41.24-2.15-.1.09-.07.15-.16.24-.19.37-.14.76-.25,1.12-.41.81-.35,1.6-.73,2.4-1.08.29-.13.62-.19.92-.29.04-.01.06-.11.11-.2-.25-.04-.45-.07-.63-.09.37-.22.77-.36,1.02-.63.28-.3.55-.49.97-.52.3-.02.62-.06.9-.15.55-.19,1.28-.16,1.43-.95-.56.07-1.11.15-1.66.19-1.02.07-2.05.09-3.07.17-.45.04-.87.1-1.27-.2-.12-.09-.36-.06-.55-.07-1.29,0-2.57.37-3.86,0-.24-.07-.5-.09-.75-.14,0-.07,0-.13,0-.2,1.27-.23,2.55-.46,3.82-.67.54-.09.69-.16,1.04-.6-.53.13-.97.25-1.42.35-.49.11-.98.35-1.5-.07.6-.47,1.47-.21,2.09-.87-.74.05-1.33.1-1.99.14.42-.19.75-.35,1.11-.49.33-.13.68-.22,1.02-.33-.01-.06-.02-.11-.04-.17-.25,0-.49,0-.74,0-.17,0-.34.01-.49.06-1.79.6-3.61.49-5.44.28.04-.89-.11-1.02-1.08-1-.18,0-.36-.02-.55-.04,0-.06.01-.12.02-.19.57,0,1.15,0,1.72-.02.66-.02,1.34-.2,1.97-.1.77.12,1.4-.1,2.07-.34-.61-.14-1.16-.26-1.82-.05-.55.17-1.24.26-1.99-.09.38-.12.6-.23.84-.27.38-.06.76-.08,1.14-.11,1.44-.11,2.88-.23,4.32-.33.21-.01.44.05.63.13.58.23.73.19,1.07-.48-1.89.06-3.72.12-5.56.19,0-.06-.01-.11-.02-.16.81-.16,1.62-.31,2.58-.5-.24-.12-.34-.21-.45-.21-.92.01-1.83.04-2.75.06-.83.02-1.67.05-2.5.06-.27,0-.55-.08-.82-.06-.3.02-.55.07-.84-.16-.22-.18-.59.27-.92-.02-.11-.1-.3-.12-.62-.25.67-.14,1.14-.23,1.61-.33-.22-.97-1.04-.6-1.66-.8.3-.12.54-.21.81-.31-.54-.03-1.05-.05-1.56-.08,0-.04,0-.07-.01-.11.23-.1.46-.2.69-.3-.74-.08-1.46-.08-2.18-.07-.92.01-1.63-.39-1.93-1.21-.11-.3-.28-.43-.54-.51-.48-.14-.98-.31-1.46-.13-.4.14-.83.01-1-.17-.26-.3-.52-.23-.8-.24-.64-.02-1.28-.02-1.91-.06-.63-.04-1.24-.21-1.95-.52.51-.13.87-.23,1.24-.32.07.19.15.37.22.55.03,0,.07-.02.1-.02.01-.14.02-.27.04-.44.17.05.28.08.45.13-.13-.19-.24-.34-.34-.49.51-.19,1.05-.14,1.19.14-.11.12-.23.24-.36.38.24.24.48.2.72.1.38-.16.74-.09,1.14-.02,1.06.21,2.13.35,3.19.52.07,0,.14-.04.26-.07-.15-.23-.28-.43-.43-.68.37-.12.69-.21.99-.32.27-.09.72.31.87-.31-.47-.02-.91-.04-1.32-.05-.34-.55-.83-1-.83-1.78.51.07,1.04.07,1.5.24.69.24,1.34.4,2.07.1-.07-.06-.1-.1-.14-.11-1.25-.22-2.49-.43-3.73-.66-.17-.03-.47-.08-.48-.14-.06-.4-.4-.31-.64-.36-.36-.07-.73-.08-1.09-.12-.35-.04-.7.42-1.05.03-.33-.37-.69-.35-1.11-.31-.2.02-.41-.07-.62-.12.22-.35-.36-.36-.33-.68.25-.08.49-.16.7-.23-.03-.15-.05-.24-.07-.35.14-.03.26-.04.36-.07.45-.15,1.02-.1,1.23-.68.03-.07.29-.12.44-.1.77.06,1.47.25,1.99.85.13.15.38.22.68.4,0-.69,0-1.22-.01-1.72-.32-.12-.79-.19-.82-.34-.14-.65-.74-.86-1.28-1.3.73.04.78-.79,1.55-.7-.63-.49-.57-1.04-.3-1.57.19-.36.55-.11.91.01-.05-.54-.09-1-.14-1.45.02-.23.12-.58.34-.67.39-.16.41-.43.52-.72.13-.36.32-.73.87-.74-.14-.29-.52-.63.19-.77-.15-.19-.28-.36-.41-.52-.06-.07-.12-.13-.19-.2.3-.22.6-.44.99-.74.01-.13-.49-.31-.17-.68.05-.06-.34-.42-.45-.67-.09-.19-.05-.43-.07-.67.98-.59.8-1.66,1.25-2.55-.38-.06-.64-.11-.98-.16.22-.32.4-.57.55-.78-.35-.27-.66-.52-.97-.77.48-.46,1.22-.2,1.71-.75-.1-.03-.2-.06-.29-.08-.3.12-.58.37-.91.54.19-.26.35-.46.54-.65-.21-.06-.41-.12-.61-.17.02-.4.04-.8.06-1.28-.28-.05-.59-.1-.94-.17.04-.29.08-.59.12-.9.5.02.96.09,1.39.03.41-.06.85.43,1.3-.08-.21-.02-.35-.06-.48-.05-.86.08-1.72-.04-2.58-.01-.98.47-1.97.95-2.96,1.4-3.47,1.59-6.95,3.16-10.43,4.74M1449.85,271.99c-.34-.06-.51-.1-.77-.15.28-.35.55-.69.85-1.06.41.14.72.25,1.07.38-.44.3-1.21.23-1.16.83M1451.81,270.59s-.04-.05-.06-.07c.58-.31,1.17-.61,1.75-.91.02.02.03.05.05.07-.58.3-1.16.61-1.75.91M1455.8,268.09c-.06-.05-.11-.1-.17-.15.34-.2.68-.39,1.01-.59.04.04.09.08.13.12-.33.2-.65.41-.98.62M1485.44,255.87c.84-.73,1.9-1.17,2.98-1.58.03.06.06.11.09.17-1.02.47-2.04.94-3.06,1.41M1449.59,275.68c-.77.43-1.56.86-2.38,1.31.05-.1.1-.19.14-.27.11-.22.19-.36.24-.48,1.51-.67,3.01-1.32,4.5-1.98,0,0,.01.02.02.03-.83.46-1.67.92-2.52,1.39M1461.29,271.47c.2-.11.41-.22.61-.32.03.03.06.06.09.1-.19.12-.38.23-.58.35-.04-.04-.08-.09-.12-.13M1461.39,271.73s-.1-.05-.15-.06c.05.01.1.03.15.06M1463.98,269.73c-.14,0-.28,0-.43,0,.14,0,.28,0,.43,0M1464.25,269.74h0,0M1474.57,266.25c.12-.12.23-.19.35-.21.14-.03.3,0,.51.07-.36.14-.72.28-1.09.43.09-.12.16-.21.23-.28M1476.23,265.6c.17-.12.32-.25.5-.35.05-.03.17.02.34.05-.3.16-.53.27-.75.39l-.09-.09ZM1484.48,261.78c-.09.05-.18.1-.28.15l-.11-.12.12-.07c.15-.09.31-.18.46-.27.04.05.08.1.12.15-.1.05-.2.11-.31.16M1490.49,255.33q.13-.52,1.02-.61c-.4.23-.66.39-1.02.61M1492.34,255.6c.36-.43.79-.75,1.45-.7-.48.23-.97.47-1.45.7M1488.8,256.98s.08.08.12.12c-.19.11-.37.22-.56.32-.04-.04-.07-.07-.11-.11l.55-.33ZM1485.62,257.45c.65-.44,1.26-.95,1.97-1.3.72-.36,1.53-.58,2.35-.77-1.36.82-2.8,1.5-4.32,2.07M1508.11,247.9l1.04-.47c.03.09.07.18.1.27-.36.11-.72.23-1.08.35-.02-.05-.04-.1-.06-.15M1523.86,242.08c.6-.32.95-.49,1.3-.68.02.04.04.07.06.11-.36.15-.73.3-1.35.56M1527.53,239.84c.23-.1.47-.2.71-.3l.04.08c-.22.12-.45.23-.67.35-.02-.04-.05-.09-.07-.13M1521.82,240.61c1.3-.61,2.62-1.19,3.94-1.75.6-.25,1.12-.76,1.84-.7.04,0,.21-.25.36-.34.1-.06.27-.03.41-.04,0,.07.01.15.02.22-.85.4-1.7.8-2.54,1.2-.27.13-.65.24-.77.39-.51.67-1.15.66-1.85.65-.34.26-.65.53-1.01.77-.23.15-.65.41-.76.37-.65-.2-.86.33-1.37.73,0-.26-.07-.45,0-.5.56-.36,1.12-.72,1.73-1.01M1520.96,240.32c.74-.61,4.3-2.2,5.39-2.35-.56.27-1.12.54-1.68.81-.57.28-1.14.57-1.72.83-.59.27-1.16.67-2,.7M1530.18,236.83q-.32.62-1.43.76c.23-.64,1.08-.33,1.43-.76M1540.47,232c-.07.56-.35.74-2.52,1.6-.12-.58.65-.77,1.05-1.01.43-.26.98-.4,1.47-.59M1538.41,234.6c-.06-.02-.18-.02-.24-.07-.06-.05-.07-.14-.12-.24.68-.38,1.37-.76,2.05-1.14l.11.09c-.59.44-1.18.89-1.81,1.36M1540.12,233.67c-.01.1,0,.17-.03.19-.26.16-.49.52-.9.26.34-.16.62-.3.93-.45M1535.94,233.45c-.41.3-.83.59-1.54.36.62-.24,1.05-.4,1.48-.57.02.07.04.14.07.2M1536.86,235.09c-.32.22-.5.36-.71.47-.42.23-.88.41-1.29.66-.66.4-1.28.83-2.04,1.32-.04-.52.48-.64.78-.85.28-.2.57-.39.86-.58-.05-.05-.11-.1-.16-.15-.58.3-1.17.61-1.92,1,.88-.82,2.13-1.6,4.48-1.88M1542.58,230.86c.3-.14.59-.3.9-.42.74-.3,1.23-.71,1.52-1.25.06-.1.21-.24.35-.3.74-.35,1.48-.67,2.29-.9-.72.37-1.43.75-2.14,1.12,2.81-.78,5.47-1.95,8.16-3.08-.25.28-.28.52-.97.69-1.07.27-2.15.8-2.87,1.61-.1-.31-.5-.07-.75.04-.88.41-1.75.85-2.63,1.27-.53.25-1.07.47-1.61.71-.98.43-1.95.85-2.99,1.31,0-.34.28-.59.74-.79M1542.08,232.78c.12-.11.21-.25.35-.33.85-.47,1.71-.92,2.56-1.39.11-.06.2-.19.26-.28.25-.4.58-.7,1.2-.82.22-.04.46-.2.7-.32.53-.26.99-.66,1.67-.58.16.02.65-.44,1-.7,1.06.04,2.05-.36,2.95-1.01.35-.25.62-.38,1.03-.14-4.03,1.71-7.59,4.05-11.72,5.57M1554.52,225.96c.32-.33.54-.56.81-.85q.2.42-.81.85M1560.8,222.73c.02.06.05.11.07.17-.34.15-.67.3-1.01.45-.02-.03-.04-.06-.06-.1.33-.17.67-.35,1-.52M1565.16,220.92c-1.07.49-2.14.98-3.2,1.48-.03-.06-.06-.12-.1-.19,1.1-.43,2.06-1.15,3.22-1.45l.08.15ZM1588.88,210.08c-.01.1-.05.21-.12.31-.01.02-.2.02-.38.04.1-.14.15-.25.24-.34.03-.03.26-.02.26,0M1520.28,242.32c1.06-.46,2.19-.86,3.15-1.43,1.65-.97,3.45-1.6,5.16-2.42.11-.05.24-.08.48-.15-.26.43-.63.75-1.11.99-1.26.64-2.5,1.23-3.92,1.56-.76.18-1.56.77-2.31,1.21-.67.39-1.24.91-2.08,1.05-.11.02-.31.08-.34.14-.4.59-1.28.68-1.82,1.11.52-.99,1.61-1.55,2.78-2.06M1521.1,243.35c-1.34.68-2.53,1.59-4.3,2.05,1.45-1.02,2.98-1.38,4.3-2.05M1511.56,245.27c.81-.23,1.61-.67,2.45-.95-1.59.69-2.95,1.83-5.03,2.2.95-.63,1.68-1,2.59-1.26M1501.94,249.53c.67-.42,1.27-.85,1.93-1.17.41-.21.94-.21,1.38-.4.9-.38,1.78-.81,2.67-1.22.38-.18.77-.44,1.08-.12-.39.24-.78.49-1.17.73.03.05.06.09.08.14.4-.2.8-.42,1.21-.6.42-.19.85-.34,1.45-.48-.09.07-.16.18-.26.22-1.73.77-3.48,1.53-5.21,2.31-.66.3-1.47.49-1.76,1.15-.05.11-.43.2-.62.33-.21.14-.39.3-.57.45,0-.19.01-.39.02-.58-.21.03-.42.06-.8.11.4-.23.64-.37.9-.52-.11-.11-.2-.22-.33-.35M1506.76,248.89c-.65.37-1.24.7-1.9,1.08-.08-.2-.14-.36-.2-.5.64-.53,1.27-.79,2.11-.58M1500.52,250.17c.18-.08.39-.1.64-.07-.7.37-1.4.73-2.16,1.13.61.38,1.04-.28,1.72-.43-.3.36-.55.65-.91,1.08.88-.36,1.62-.66,2.35-.96h0c1.38-.04,2.66-.87,4.17-1.28-.49.45-1.01.56-1.47.77-.34.15-.83.32-.95.5-.51.78-1.45,1.12-2.27,1.25-1.12.17-2.03.77-3.06,1.09-.12.04-.24.12-.35.15-.29.06-.67.18-.85.11-.33-.12.07-.36.23-.58.3-.42.48-.85.77-1.39-.57.25-.92.4-1.28.56-.04-.03-.08-.06-.12-.09.14-.14.24-.32.41-.4,1.04-.49,2.09-.97,3.14-1.43M1479.98,259.96s.04.07.06.1c-.2.09-.4.18-.6.27-.02-.04-.04-.08-.06-.12.2-.08.4-.17.6-.25M1470.17,265.19c.34-.14.81.21,1.08-.37.03-.07.23-.2.28-.19.83.1,1.57-.74,2.39-.71.09,0,.24-.07.33-.14,1.1-.8,2.32-1.36,3.65-1.87,1.47-.56,2.89-1.27,4.33-1.91,1.59-.72,3.19-1.43,4.79-2.15.05-.02.13.02.26.04-.91.66-2.24.85-2.95,1.75-.54-.09-1.06.14-1.57.49-.47.33-.96.64-1.48.93-.25.14-.62.54-.86.17-.01-.01-.37.11-.52.21-.19.13-.33.29-.56.5-.71-.26-1.14-.09-1.39.47-.06.14-.23.32-.39.4-.75.36-1.52.69-2.35,1.06.06-.15.09-.25.14-.4-.8.22-1.38.64-1.93,1.09-.16.13-.32.27-.49.39-.12.09-.24.17-.37.24-.17.09-.34.18-.51.27-.25.13-.5.26-.75.39-.54.28-1.09.56-1.64.84-.04-.04-.08-.07-.12-.11.14-.13.27-.25.41-.38.03-.03.07-.06.1-.1-.34.01-.68.02-1.06.04.43-.35.79-.65,1.17-.96"/>
    <path class="cls-3" d="M411.56,191.27c0,32.5-24.83,55.3-56.43,55.3h-20.99v47.4h-40.41v-158.01h61.4c31.6,0,56.43,22.8,56.43,55.31M371.15,191.27c0-9.93-7-16.71-16.03-16.71h-20.99v33.63h20.99c9.03,0,16.03-7,16.03-16.93"/>
    <path class="cls-3" d="M482.21,242.96h-14.45v51.01h-40.4v-158.01h63.2c32.05,0,56.88,22.8,56.88,54.63,0,19.41-10.61,35.89-26.86,44.92l32.51,58.46h-43.34l-27.54-51.01ZM467.76,208.65h22.35c9.93.22,16.93-7,16.93-17.61s-7-17.83-16.93-17.83h-22.35v35.44Z"/>
    <path class="cls-3" d="M658.94,271.18h-52.59l-6.77,22.8h-43.79l52.14-158.01h49.21l52.14,158.01h-43.57l-6.77-22.8ZM648.56,236.42l-16.03-53.72-15.8,53.72h31.83Z"/>
    <path class="cls-3" d="M765.92,214.97c0-46.5,34.54-82.39,82.39-82.39,28.89,0,54.63,14.67,68.4,37.47l-34.99,20.09c-6.09-11.29-18.73-18.06-33.41-18.06-25.51,0-42.21,17.61-42.21,42.89s16.7,42.89,42.21,42.89c14.67,0,27.31-6.77,33.41-18.29l34.99,20.32c-13.77,22.8-39.28,37.47-68.4,37.47-47.86,0-82.39-35.89-82.39-82.39"/>
    <rect class="cls-3" x="931.15" y="135.96" width="40.4" height="158.01"/>
    <polygon class="cls-3" points="1157.55 293.98 1117.37 293.98 1117.37 208.87 1079 272.3 1074.94 272.3 1036.79 209.1 1036.79 293.98 996.38 293.98 996.38 135.96 1036.79 135.96 1076.96 203.46 1117.37 135.96 1157.55 135.96 1157.55 293.98"/>
    <path class="cls-3" d="M1272.21,271.18h-52.59l-6.77,22.8h-43.79l52.14-158.01h49.21l52.14,158.01h-43.57l-6.77-22.8ZM1261.83,236.42l-16.03-53.72-15.8,53.72h31.83Z"/>
    <polygon class="cls-3" points="1366.11 325.58 1335.86 325.58 1343.76 254.7 1385.07 254.7 1366.11 325.58"/>
    <path class="cls-3" d="M353.75,468.74h-14.45v51.01h-40.4v-158.01h63.2c32.05,0,56.88,22.8,56.88,54.63,0,19.41-10.61,35.89-26.86,44.92l32.51,58.46h-43.34l-27.54-51.01ZM339.31,434.42h22.35c9.93.22,16.93-7,16.93-17.61s-7-17.83-16.93-17.83h-22.35v35.44Z"/>
    <rect class="cls-3" x="438.85" y="361.74" width="40.4" height="158.01"/>
    <path class="cls-3" d="M497.98,440.74c0-46.5,36.79-82.39,82.84-82.39s82.84,35.89,82.84,82.39-36.79,82.39-82.84,82.39-82.84-35.89-82.84-82.39M623.49,440.74c0-25.28-18.51-42.89-42.66-42.89s-42.66,17.61-42.66,42.89,18.51,42.89,42.66,42.89,42.66-17.61,42.66-42.89"/>
    <path class="cls-3" d="M890.51,445.26c0,46.5-32.28,77.88-78.33,77.88-49.89,0-84.65-36.34-84.65-82.17s35.67-82.62,82.39-82.62c30.25,0,55.76,14.9,69.3,36.34l-34.31,19.64c-6.09-9.48-18.51-16.48-34.54-16.48-24.83,0-42.66,18.06-42.66,43.34,0,23.03,15.12,43.57,45.15,43.57,19.41,0,30.93-8.13,36.34-20.77h-38.37v-34.76h79.68v16.03Z"/>
    <path class="cls-3" d="M964.09,468.74h-14.45v51.01h-40.4v-158.01h63.2c32.05,0,56.88,22.8,56.88,54.63,0,19.41-10.61,35.89-26.86,44.92l32.51,58.46h-43.34l-27.54-51.01ZM949.65,434.42h22.35c9.93.22,16.93-7,16.93-17.61s-7-17.83-16.93-17.83h-22.35v35.44Z"/>
    <path class="cls-3" d="M1140.83,496.95h-52.59l-6.77,22.8h-43.79l52.14-158.01h49.21l52.14,158.01h-43.57l-6.77-22.8ZM1130.45,462.19l-16.03-53.72-15.8,53.72h31.83Z"/>
    <polygon class="cls-3" points="1329.98 361.74 1329.98 519.75 1298.83 519.75 1243.08 440.29 1243.08 519.75 1202.67 519.75 1202.67 361.74 1234.05 361.74 1289.81 441.2 1289.81 361.74 1329.98 361.74"/>
    <path class="cls-3" d="M1496.11,440.74c0,44.7-33.18,79.01-76.75,79.01h-64.33v-158.01h64.33c43.57,0,76.75,34.31,76.75,79M1456.61,440.74c0-24.15-15.58-39.95-37.25-39.95h-22.8v79.91h22.8c21.67,0,37.25-15.8,37.25-39.95"/>
    <polygon class="cls-3" points="1616.42 481.83 1616.42 519.75 1514.84 519.75 1514.84 361.74 1615.29 361.74 1615.29 399.44 1555.24 399.44 1555.24 421.33 1609.64 421.33 1609.64 458.58 1555.24 458.58 1555.24 481.83 1616.42 481.83"/>
    <g>
      <path class="cls-3" d="M298.68,612.45c0-14.25,11.19-25.31,25.24-25.31s25.31,11.06,25.31,25.31-11.26,25.31-25.31,25.31-25.24-11.13-25.24-25.31ZM339.63,612.45c0-9.39-6.88-15.99-15.71-15.99s-15.71,6.61-15.71,15.99,6.88,15.92,15.71,15.92,15.71-6.6,15.71-15.92Z"/>
      <path class="cls-3" d="M384.29,601.67v.35h7.37v8.62h-7.37v26.15h-8.97v-26.15h-5.01v-8.62h5.01v-.35c0-9.59,5.29-15.23,16.34-14.53v8.62c-4.66-.35-7.37,1.18-7.37,5.91Z"/>
      <path class="cls-3" d="M427.68,602.02v34.77h-8.97v-3.89c-2.09,3.13-5.7,4.87-10.36,4.87-7.37,0-13.14-5.15-13.14-14.39v-21.35h8.97v20.23c0,4.73,2.85,7.16,6.88,7.16,4.38,0,7.65-2.57,7.65-8.62v-18.77h8.97Z"/>
      <path class="cls-3" d="M447.92,610.64v14.46c0,3.76,2.71,3.82,7.86,3.55v8.14c-12.59,1.39-16.83-2.29-16.83-11.68v-14.46h-6.05v-8.62h6.05v-7.02l8.97-2.71v9.73h7.86v8.62h-7.86Z"/>
      <path class="cls-3" d="M494.59,602.02v34.77h-8.97v-3.89c-2.09,3.13-5.7,4.87-10.36,4.87-7.37,0-13.14-5.15-13.14-14.39v-21.35h8.97v20.23c0,4.73,2.85,7.16,6.88,7.16,4.38,0,7.65-2.57,7.65-8.62v-18.77h8.97Z"/>
      <path class="cls-3" d="M522.34,601.33v10.01c-4.66-.56-10.57,1.53-10.57,8.83v16.62h-8.97v-34.77h8.97v5.98c1.81-4.73,6.19-6.67,10.57-6.67Z"/>
      <path class="cls-3" d="M525.75,619.41c0-10.36,8.14-18.36,18.36-18.36s18.43,8,18.43,18.36-8.21,18.36-18.43,18.36-18.36-8-18.36-18.36ZM553.56,619.41c0-5.63-4.1-9.6-9.46-9.6s-9.39,3.96-9.39,9.6,4.1,9.59,9.39,9.59,9.46-3.96,9.46-9.59Z"/>
      <path class="cls-3" d="M603.64,629.63c3.48,0,6.26-1.46,7.79-3.48l7.23,4.17c-3.27,4.73-8.48,7.44-15.16,7.44-11.68,0-19.05-8-19.05-18.36s7.44-18.36,18.36-18.36c10.29,0,17.59,8.14,17.59,18.36,0,1.32-.14,2.5-.35,3.68h-26.22c1.25,4.59,5.08,6.54,9.8,6.54ZM611.43,616.14c-1.11-5.01-4.87-7.02-8.62-7.02-4.8,0-8.07,2.57-9.11,7.02h17.73ZM605.45,597.36h-8.62l5.56-9.53h10.78l-7.72,9.53Z"/>
      <path class="cls-3" d="M679.44,602.02v34.77h-8.97v-4.1c-2.5,3.13-6.26,5.08-11.33,5.08-9.25,0-16.9-8-16.9-18.36s7.65-18.36,16.9-18.36c5.07,0,8.83,1.95,11.33,5.08v-4.1h8.97ZM670.47,619.41c0-5.84-4.1-9.8-9.67-9.8s-9.6,3.96-9.6,9.8,4.1,9.8,9.6,9.8,9.67-3.96,9.67-9.8Z"/>
      <path class="cls-3" d="M722.98,602.02v33.1c0,11.4-8.97,16.55-18.15,16.55-7.44,0-13.42-2.85-16.48-8.48l7.65-4.38c1.46,2.71,3.75,4.87,9.11,4.87,5.63,0,9.11-3.06,9.11-8.55v-3.76c-2.43,3.27-6.19,5.28-11.13,5.28-9.87,0-17.31-8-17.31-17.8s7.44-17.8,17.31-17.8c4.94,0,8.69,2.02,11.13,5.29v-4.31h8.76ZM714.22,618.85c0-5.49-4.1-9.46-9.74-9.46s-9.73,3.96-9.73,9.46,4.1,9.53,9.73,9.53,9.74-3.96,9.74-9.53Z"/>
      <path class="cls-3" d="M729.31,619.41c0-10.36,8.14-18.36,18.36-18.36s18.43,8,18.43,18.36-8.21,18.36-18.43,18.36-18.36-8-18.36-18.36ZM757.12,619.41c0-5.63-4.1-9.6-9.46-9.6s-9.39,3.96-9.39,9.6,4.1,9.59,9.39,9.59,9.46-3.96,9.46-9.59Z"/>
      <path class="cls-3" d="M791.97,601.33v10.01c-4.66-.56-10.57,1.53-10.57,8.83v16.62h-8.97v-34.77h8.97v5.98c1.81-4.73,6.19-6.67,10.57-6.67Z"/>
      <path class="cls-3" d="M832.58,602.02v34.77h-8.97v-4.1c-2.5,3.13-6.26,5.08-11.33,5.08-9.25,0-16.9-8-16.9-18.36s7.65-18.36,16.9-18.36c5.07,0,8.83,1.95,11.33,5.08v-4.1h8.97ZM823.61,619.41c0-5.84-4.1-9.8-9.67-9.8s-9.6,3.96-9.6,9.8,4.1,9.8,9.6,9.8,9.67-3.96,9.67-9.8Z"/>
      <path class="cls-3" d="M875.49,629.63c3.48,0,6.26-1.46,7.79-3.48l7.23,4.17c-3.27,4.73-8.48,7.44-15.16,7.44-11.68,0-19.05-8-19.05-18.36s7.44-18.36,18.36-18.36c10.29,0,17.59,8.14,17.59,18.36,0,1.32-.14,2.5-.35,3.68h-26.22c1.25,4.59,5.08,6.54,9.8,6.54ZM883.28,616.14c-1.11-5.01-4.87-7.02-8.62-7.02-4.8,0-8.07,2.57-9.11,7.02h17.73Z"/>
      <path class="cls-3" d="M933.29,629.63c3.48,0,6.26-1.46,7.79-3.48l7.23,4.17c-3.27,4.73-8.48,7.44-15.16,7.44-11.68,0-19.05-8-19.05-18.36s7.44-18.36,18.36-18.36c10.29,0,17.59,8.14,17.59,18.36,0,1.32-.14,2.5-.35,3.68h-26.22c1.25,4.59,5.08,6.54,9.8,6.54ZM941.08,616.14c-1.11-5.01-4.87-7.02-8.62-7.02-4.8,0-8.07,2.57-9.11,7.02h17.73Z"/>
      <path class="cls-3" d="M982.52,626.64c0,7.51-6.54,11.13-13.98,11.13-6.95,0-12.1-2.92-14.6-8.27l7.79-4.38c.97,2.85,3.34,4.52,6.81,4.52,2.85,0,4.8-.97,4.8-2.99,0-5.08-17.94-2.29-17.94-14.53,0-7.09,6.05-11.06,13.21-11.06,5.63,0,10.5,2.57,13.21,7.37l-7.65,4.17c-1.04-2.23-2.99-3.55-5.56-3.55-2.23,0-4.03.97-4.03,2.85,0,5.15,17.94,1.95,17.94,14.74Z"/>
      <path class="cls-3" d="M1000.68,610.64v14.46c0,3.76,2.71,3.82,7.86,3.55v8.14c-12.59,1.39-16.83-2.29-16.83-11.68v-14.46h-6.05v-8.62h6.05v-7.02l8.97-2.71v9.73h7.86v8.62h-7.86Z"/>
      <path class="cls-3" d="M1050.82,602.02v34.77h-8.97v-4.1c-2.5,3.13-6.26,5.08-11.33,5.08-9.25,0-16.9-8-16.9-18.36s7.65-18.36,16.9-18.36c5.07,0,8.83,1.95,11.33,5.08v-4.1h8.97ZM1041.85,619.41c0-5.84-4.1-9.8-9.67-9.8s-9.6,3.96-9.6,9.8,4.1,9.8,9.6,9.8,9.67-3.96,9.67-9.8ZM1035.87,597.64h-8.62l5.56-9.53h10.78l-7.72,9.53Z"/>
      <path class="cls-3" d="M1093.73,629.63c3.48,0,6.26-1.46,7.79-3.48l7.23,4.17c-3.27,4.73-8.48,7.44-15.16,7.44-11.68,0-19.05-8-19.05-18.36s7.44-18.36,18.36-18.36c10.29,0,17.59,8.14,17.59,18.36,0,1.32-.14,2.5-.35,3.68h-26.22c1.25,4.59,5.08,6.54,9.8,6.54ZM1101.52,616.14c-1.11-5.01-4.87-7.02-8.62-7.02-4.8,0-8.07,2.57-9.11,7.02h17.73Z"/>
      <path class="cls-3" d="M1168.35,615.37v21.42h-8.97v-20.79c0-4.1-2.09-6.61-5.84-6.61-3.96,0-6.47,2.64-6.47,7.86v19.54h-8.97v-20.79c0-4.1-2.08-6.61-5.84-6.61s-6.54,2.64-6.54,7.86v19.54h-8.97v-34.77h8.97v3.69c1.95-2.92,5.22-4.66,9.67-4.66s7.51,1.81,9.46,5.01c2.15-3.13,5.63-5.01,10.36-5.01,7.93,0,13.14,5.63,13.14,14.32Z"/>
      <path class="cls-3" d="M1225.87,615.44v21.35h-8.97v-20.23c0-4.73-2.85-7.16-6.88-7.16-4.38,0-7.65,2.57-7.65,8.62v18.77h-8.97v-34.77h8.97v3.89c2.09-3.13,5.7-4.87,10.36-4.87,7.37,0,13.14,5.15,13.14,14.39Z"/>
      <path class="cls-3" d="M1231.72,619.41c0-10.36,8.14-18.36,18.36-18.36s18.43,8,18.43,18.36-8.21,18.36-18.43,18.36-18.36-8-18.36-18.36ZM1259.53,619.41c0-5.63-4.1-9.6-9.46-9.6s-9.39,3.96-9.39,9.6,4.1,9.59,9.39,9.59,9.46-3.96,9.46-9.59Z"/>
      <path class="cls-3" d="M1301.05,626.64c0,7.51-6.54,11.13-13.98,11.13-6.95,0-12.1-2.92-14.6-8.27l7.79-4.38c.97,2.85,3.34,4.52,6.81,4.52,2.85,0,4.8-.97,4.8-2.99,0-5.08-17.94-2.29-17.94-14.53,0-7.09,6.05-11.06,13.21-11.06,5.63,0,10.5,2.57,13.21,7.37l-7.65,4.17c-1.04-2.23-2.99-3.55-5.56-3.55-2.23,0-4.03.97-4.03,2.85,0,5.15,17.94,1.95,17.94,14.74Z"/>
      <path class="cls-3" d="M1333.39,626.64c0,7.51-6.54,11.13-13.98,11.13-6.95,0-12.1-2.92-14.6-8.27l7.79-4.38c.97,2.85,3.34,4.52,6.81,4.52,2.85,0,4.8-.97,4.8-2.99,0-5.08-17.94-2.29-17.94-14.53,0-7.09,6.05-11.06,13.21-11.06,5.63,0,10.5,2.57,13.21,7.37l-7.65,4.17c-1.04-2.23-2.99-3.55-5.56-3.55-2.23,0-4.03.97-4.03,2.85,0,5.15,17.94,1.95,17.94,14.74Z"/>
      <path class="cls-3" d="M1374.91,602.02v34.77h-8.97v-4.1c-2.5,3.13-6.26,5.08-11.33,5.08-9.25,0-16.9-8-16.9-18.36s7.65-18.36,16.9-18.36c5.07,0,8.83,1.95,11.33,5.08v-4.1h8.97ZM1365.94,619.41c0-5.84-4.1-9.8-9.67-9.8s-9.6,3.96-9.6,9.8,4.1,9.8,9.6,9.8,9.67-3.96,9.67-9.8Z"/>
      <path class="cls-3" d="M1409.26,626.64c0,7.51-6.54,11.13-13.98,11.13-6.95,0-12.1-2.92-14.6-8.27l7.79-4.38c.97,2.85,3.34,4.52,6.81,4.52,2.85,0,4.8-.97,4.8-2.99,0-5.08-17.94-2.29-17.94-14.53,0-7.09,6.05-11.06,13.21-11.06,5.63,0,10.5,2.57,13.21,7.37l-7.65,4.17c-1.04-2.23-2.99-3.55-5.56-3.55-2.23,0-4.03.97-4.03,2.85,0,5.15,17.94,1.95,17.94,14.74Z"/>
      <path class="cls-3" d="M1484.37,615.37v21.42h-8.97v-20.79c0-4.1-2.09-6.61-5.84-6.61-3.96,0-6.47,2.64-6.47,7.86v19.54h-8.97v-20.79c0-4.1-2.09-6.61-5.84-6.61s-6.54,2.64-6.54,7.86v19.54h-8.97v-34.77h8.97v3.69c1.95-2.92,5.22-4.66,9.67-4.66s7.51,1.81,9.46,5.01c2.15-3.13,5.63-5.01,10.36-5.01,7.93,0,13.14,5.63,13.14,14.32Z"/>
      <path class="cls-3" d="M1527.42,602.02v34.77h-8.97v-4.1c-2.5,3.13-6.26,5.08-11.33,5.08-9.25,0-16.9-8-16.9-18.36s7.65-18.36,16.9-18.36c5.07,0,8.83,1.95,11.33,5.08v-4.1h8.97ZM1504.82,597.85h-7.23c0-11.05,6.68-12.24,12.66-8.41,2.71,1.74,3.61,1.81,3.61-1.67h7.3c0,11.06-6.75,12.24-12.66,8.41-2.71-1.74-3.69-1.81-3.69,1.67ZM1518.45,619.41c0-5.84-4.1-9.8-9.67-9.8s-9.6,3.96-9.6,9.8,4.1,9.8,9.6,9.8,9.67-3.96,9.67-9.8Z"/>
      <path class="cls-3" d="M1533.76,619.41c0-10.36,8.14-18.36,18.36-18.36s18.43,8,18.43,18.36-8.21,18.36-18.43,18.36-18.36-8-18.36-18.36ZM1561.57,619.41c0-5.63-4.1-9.6-9.46-9.6s-9.39,3.96-9.39,9.6,4.1,9.59,9.39,9.59,9.46-3.96,9.46-9.59Z"/>
      <path class="cls-3" d="M1603.09,626.64c0,7.51-6.54,11.13-13.98,11.13-6.95,0-12.1-2.92-14.6-8.27l7.79-4.38c.97,2.85,3.34,4.52,6.81,4.52,2.85,0,4.8-.97,4.8-2.99,0-5.08-17.94-2.29-17.94-14.53,0-7.09,6.05-11.06,13.21-11.06,5.63,0,10.5,2.57,13.21,7.37l-7.65,4.17c-1.04-2.23-2.99-3.55-5.56-3.55-2.23,0-4.03.97-4.03,2.85,0,5.15,17.94,1.95,17.94,14.74Z"/>
      <path class="cls-3" d="M1608.52,631.78c0-3.27,2.64-5.91,5.91-5.91s5.91,2.64,5.91,5.91-2.64,5.91-5.91,5.91-5.91-2.64-5.91-5.91Z"/>
    </g>
  </g>
  <g>
    <path class="cls-3" d="M327.77,888.04h16.94v29.46c-2.35,1.19-6.79,2.21-14.01,2.21-18.55,0-31.24-12.09-31.24-36.69s13.42-36.54,32.12-36.54c6.79,0,11.5,1.32,15.03,3.1l1.79-4.73c-2.96-1.47-9-3.24-16.37-3.24-23.28,0-38.3,16.49-38.32,42.13v.04c.01,13.84,4.27,24.59,10.61,31.07,7.37,7.37,16.2,9.72,25.49,9.72s16.65-2.2,20.47-3.82v-37.27h-22.53v4.57Z"/>
    <path class="cls-3" d="M371.09,876.83h-.29l-.14-11.06h-5.16c.16,5.16.45,10.91.45,16.23v41.85h5.45v-32.71c0-1.77.15-3.55.43-5.32,1.19-8.69,6.5-15.63,14.3-15.63h2.21v-5.45c-.59,0-1.19-.13-1.91-.13-7.37,0-12.96,5.58-15.34,12.23"/>
    <path class="cls-3" d="M439.03,865.77h-5.59v36.99c0,2.36-.45,4.28-.89,6.19-1.77,4.86-6.93,11.2-15.05,11.2-10.45,0-13.54-8.69-13.54-20.48v-33.89h-5.61v34.92c0,19.46,9.88,24.32,17.84,24.32,9.13,0,15.04-5.88,17.39-10.16h.29l.44,9h5.16c-.3-4.28-.44-8.69-.44-14.3v-43.77Z"/>
    <path class="cls-3" d="M479.99,920.3h-.74c-7.07,0-14.13-4.56-16.37-14.3-.43-1.47-.59-2.94-.59-4.56v-12.38c0-1.47.45-3.24.75-4.71,1.91-8.69,8.98-15.04,16.64-15.04h.31c11.64.15,17.54,12.23,17.54,25.06,0,14.44-5.89,25.5-17.54,25.93M481.02,864.6h-1.03c-7.81.29-13.86,4.11-17.7,11.19h-.28l-.29-10.02h-5.32c.14,4.86.45,10.33.45,18.43v63.22h5.43v-32.13h.32c3.23,5.9,9.27,9.72,16.94,9.72h.44c12.22-.29,23.13-10.01,23.13-30.95,0-18.27-9.28-29.46-22.11-29.46"/>
    <path class="cls-3" d="M536.71,920.3h-.13c-11.34,0-18.26-12.52-18.26-25.35,0-11.64,5.14-25.65,18.4-25.65s18.58,15.04,18.58,25.2c0,13.27-7.22,25.64-18.58,25.79M537.18,864.6h-.47c-12.67.13-24.15,10.46-24.15,30.5s10.6,29.91,23.73,29.91h.41c11.5-.29,24.18-9.27,24.18-30.64,0-18.71-10.17-29.76-23.71-29.76"/>
    <path class="cls-3" d="M700.44,823.03c2.36-.29,5.01-.73,10.76-.73,1.47,0,2.97.13,4.28.3,4.13.43,7.37,1.61,9.87,3.38,1.04.73,1.78,1.63,2.51,2.51.15.15.44.44.57.73,1.19,1.92,1.92,4.28,1.92,6.92,0,6.79-3.69,11.5-10.31,13.57-1.34.44-2.94.74-4.57.88-1.03.15-2.21.15-3.24.15h-11.79v-27.72ZM715.47,862.98c4.87-1.04,9.58-2.06,13.99-3.24,4.28-1.18,8.26-2.35,12.09-3.53.59-.15,1.34-.44,1.77-.59,9.58-5.31,14.16-13.85,14.16-22.84,0-1.33-.17-2.66-.31-3.99-.3-1.77-.74-3.37-1.32-4.87-.3-1.17-.76-2.2-1.35-3.08-.74-1.47-1.47-2.65-2.49-3.98-.16-.15-.31-.44-.61-.74-2.21-2.65-5.13-5.01-8.39-6.62-3.54-2.22-7.22-3.69-11.34-4.72-2.96-.74-6.21-1.18-9.89-1.63-2.07-.15-4.13-.3-6.34-.3-2.21-.14-4.43-.14-6.78-.14-13.55,0-27.84,1.05-34.92,2.51v62.64c5.45-.45,10.9-.9,16.49-1.49,9-.88,17.38-1.91,25.2-3.38"/>
    <path class="cls-3" d="M783.85,836.01c1.77-1.18,3.23-2.36,4.57-3.38,1.75-1.34,3.08-2.51,4.09-3.4.47-.3.76-.58,1.05-.88,2.8-2.81,7.66-4.57,14.44-4.57,11.66,0,17.69,3.4,22.55,5.6l2.06-7.51,3.25-12.08.59-2.07c-7.08-3.24-14.45-6.05-27.86-6.05-17.24,0-30.37,5.9-37.86,15.04-1.19,1.62-2.37,3.23-3.25,5.01-.29.44-.59.88-.72,1.33-1.19,2.36-2.07,4.86-2.51,7.5-.6,2.22-.75,4.57-.75,6.94,0,3.39.45,6.62,1.33,9.58,8.12-3.98,14.43-7.81,19.01-11.06"/>
    <path class="cls-3" d="M618.96,856.79s-6.06.15-7.67-.29v-32.87c.74-.15,2.64-.29,2.64-.29,1.92-.29,4.27-.44,6.48-.44h.59c1.78.15,3.25.15,4.87.44,5.16.87,9.14,2.95,11.65,6.48,1.46,2.06,2.51,4.71,2.63,7.82.17.43.17.88.17,1.32v.59c0,.59,0,1.03-.17,1.62-.57,7.66-5.73,13.12-14.28,14.89-2.21.44-4.42.73-6.91.73M646.22,868.87c6.47-1.92,13.11-7.37,17.08-15.46.88-1.78,1.63-3.69,2.22-5.75.29-.88.58-1.92.71-2.81.46-2.36.75-4.86.75-7.36v-1.04c0-2.65-.29-5.01-.75-7.22-1.46-7.08-5-12.67-10.15-16.94-3.53-2.79-7.66-4.87-12.37-6.34-5.02-1.62-10.92-2.5-17.84-2.8-2.21-.15-4.57-.15-6.91-.15-14.3,0-25.65.74-34.34,2.21v60.41c1.19.15,2.5.3,3.81.59,8.57,1.03,19.32,1.92,31.54,2.36,1.93.14,3.84.14,5.9.29,6.34.15,13.11.15,20.35,0"/>
    <path class="cls-3" d="M812.88,852.07c-14.74-5.59-21.51-8.99-22.11-15.77-7.06,5.75-15.01,11.06-23.86,15.64,5.01,9.41,14.88,15.91,28.58,20.63,14.3,5.15,18.28,9.44,18.28,16.79,0,7.81-6.65,12.97-19.01,12.97-10.02,0-19.89-2.81-26.97-6.05-2.21-1.04-4.28-2.06-6.04-2.94.3-1.77.43-3.54.43-5.46,0-12.52-7.07-21.52-16.93-26.38-10.91,3.84-22.4,6.92-34.48,9.14h-.15v.16c12.82.28,23.29,4.27,23.29,15.91,0,12.37-10.75,17.23-22.99,17.23-4.56,0-7.82,0-10.47-.44v-31.24c-8.98,1.33-17.97,2.36-26.66,3.09v43.76s-1.34-3.83-2.8-8.98c-1.78-6.49-3.99-14.15-6.04-21.08-1.78-5.74-4.12-9.71-7.08-12.82-13.27.59-25.48.59-36.25.3v.15c7.36,1.77,13.7,6.78,17.08,18.27,4.57,15.33,7.23,24.32,8.56,28.75,0,0,54.21.15,56.72.15,26.09,0,37.3-3.84,45.85-10.76.29-.16.43-.29.58-.45,3.38,2.2,9.28,5.46,18.12,8.25,6.93,2.06,15.76,3.68,24.61,3.68,32.72,0,48.19-17.08,48.19-37.13,0-16.81-7.51-27.57-28.44-35.37"/>
    <path class="cls-3" d="M584.62,923.7h26.67v-47.61c-11.79-.59-21.06-1.48-26.67-2.06v49.67Z"/>
  </g>
</svg>